{
  "source": "C:\\Users\\Peter\\Desktop\\stuff\\MIUN\\quantitative_research\\video_compression\\videos\\BVI-HD\\BVI-HD_CDVL_videos\\ORIG\\Hamster_1920x1080_60fps.mp4",
  "output": "C:\\Users\\Peter\\Desktop\\stuff\\MIUN\\quantitative_research\\video_compression\\compressed_videos\\BVI-HD\\hevc\\2\\Hamster_1920x1080_60fps_hevc.mp4",
  "codec": "hevc",
  "ok": "Input #0, mov,mp4,m4a,3gp,3g2,mj2, from 'C:\\Users\\Peter\\Desktop\\stuff\\MIUN\\quantitative_research\\video_compression\\videos\\BVI-HD\\BVI-HD_CDVL_videos\\ORIG\\Hamster_1920x1080_60fps.mp4':\n  Metadata:\n    major_brand     : isom\n    minor_version   : 512\n    compatible_brands: isomiso2avc1mp41\n    encoder         : Lavf54.28.101\n  Duration: 00:00:05.00, start: 0.000000, bitrate: 208485 kb/s\n  Stream #0:0[0x1](und): Video: h264 (High 4:4:4 Predictive) (avc1 / 0x31637661), yuv420p(progressive), 1920x1080, 208481 kb/s, 60 fps, 60 tbr, 60 tbn (default)\n    Metadata:\n      handler_name    : VideoHandler\n      vendor_id       : [0][0][0][0]\n[out#0/mp4 @ 0000018693f5e040] Codec AVOption b:a (set bitrate (in bits/s)) has not been used for any stream. The most likely reason is either wrong type (e.g. a video option with no video streams) or that it is a private option of some decoder which was not actually used for any stream.\nStream mapping:\n  Stream #0:0 -> #0:0 (h264 (native) -> hevc (libx265))\nPress [q] to stop, [?] for help\n[libx265 @ 00000186936ac740] Unknown option: \"aq-mode.\nx265 [info]: HEVC encoder version 4.1+190-8f11c33ac\nx265 [info]: build info [Windows][GCC 15.1.0][64 bit] 10bit\nx265 [info]: using cpu capabilities: MMX2 SSE2Fast LZCNT SSSE3 SSE4.2 AVX FMA3 BMI2 AVX2\nx265 [info]: Main 10 profile, Level-4.1 (Main tier)\nx265 [info]: Thread pool created using 12 threads\nx265 [info]: Slices                              : 1\nx265 [info]: frame threads / pool features       : 3 / wpp(17 rows)\nx265 [info]: Coding QT: max CU size, min CU size : 64 / 8\nx265 [info]: Residual QT: max TU size, max depth : 32 / 1 inter / 1 intra\nx265 [info]: ME / range / subpel / merge         : star / 57 / 3 / 3\nx265 [info]: Keyframe min / max / scenecut / bias  : 25 / 250 / 40 / 5.00 \nx265 [info]: Lookahead / bframes / badapt        : 25 / 4 / 2\nx265 [info]: b-pyramid / weightp / weightb       : 1 / 1 / 0\nx265 [info]: References / ref-limit  cu / depth  : 4 / on / on\nx265 [info]: AQ: mode / str / qg-size / cu-tree  : 2 / 1.0 / 32 / 1\nx265 [info]: Rate Control / qCompress            : ABR-2000 kbps / 0.60\nx265 [info]: VBV/HRD buffer / max-rate / init    : 2000 / 2000 / 0.750\nx265 [info]: tools: rect limit-modes rd=4 psy-rd=2.00 rdoq=2 psy-rdoq=1.00\nx265 [info]: tools: rskip mode=1 signhide tmvp strong-intra-smoothing lslices=4\nx265 [info]: tools: deblock sao dhdr10-info\nOutput #0, mp4, to 'C:\\Users\\Peter\\Desktop\\stuff\\MIUN\\quantitative_research\\video_compression\\compressed_videos\\BVI-HD\\hevc\\2\\Hamster_1920x1080_60fps_hevc.mp4':\n  Metadata:\n    major_brand     : isom\n    minor_version   : 512\n    compatible_brands: isomiso2avc1mp41\n    encoder         : Lavf62.3.100\n  Stream #0:0(und): Video: hevc (hev1 / 0x31766568), yuv420p10le(tv, progressive), 1920x1080, q=2-31, 2000 kb/s, 60 fps, 15360 tbn (default)\n    Metadata:\n      encoder         : Lavc62.11.100 libx265\n      handler_name    : VideoHandler\n      vendor_id       : [0][0][0][0]\n    Side data:\n      cpb: bitrate max/min/avg: 2000000/0/2000000 buffer size: 2000000 vbv_delay: N/A\nframe=    0 fps=0.0 q=0.0 size=       0KiB time=N/A bitrate=N/A speed=N/A elapsed=0:00:02.39    \nframe=    0 fps=0.0 q=0.0 size=       0KiB time=N/A bitrate=N/A speed=N/A elapsed=0:00:03.24    \nframe=    0 fps=0.0 q=0.0 size=       0KiB time=N/A bitrate=N/A speed=N/A elapsed=0:00:03.90    \nframe=    0 fps=0.0 q=0.0 size=       0KiB time=N/A bitrate=N/A speed=N/A elapsed=0:00:04.54    \nframe=    0 fps=0.0 q=0.0 size=       0KiB time=N/A bitrate=N/A speed=N/A elapsed=0:00:05.08    \nframe=    0 fps=0.0 q=0.0 size=       0KiB time=N/A bitrate=N/A speed=N/A elapsed=0:00:05.63    \nframe=    0 fps=0.0 q=0.0 size=       0KiB time=N/A bitrate=N/A speed=N/A elapsed=0:00:06.27    \nframe=    0 fps=0.0 q=0.0 size=       0KiB time=N/A bitrate=N/A speed=N/A elapsed=0:00:07.02    \nframe=    0 fps=0.0 q=0.0 size=       0KiB time=N/A bitrate=N/A speed=N/A elapsed=0:00:07.70    \nframe=    0 fps=0.0 q=0.0 size=       0KiB time=N/A bitrate=N/A speed=N/A elapsed=0:00:08.42    \nframe=    0 fps=0.0 q=0.0 size=       0KiB time=N/A bitrate=N/A speed=N/A elapsed=0:00:09.12    \nframe=    0 fps=0.0 q=0.0 size=       0KiB time=N/A bitrate=N/A speed=N/A elapsed=0:00:09.87    \nframe=    0 fps=0.0 q=0.0 size=       0KiB time=N/A bitrate=N/A speed=N/A elapsed=0:00:10.74    \nframe=    0 fps=0.0 q=0.0 size=       0KiB time=N/A bitrate=N/A speed=N/A elapsed=0:00:11.47    \nframe=    0 fps=0.0 q=0.0 size=       0KiB time=N/A bitrate=N/A speed=N/A elapsed=0:00:12.12    \nframe=    0 fps=0.0 q=0.0 size=       0KiB time=N/A bitrate=N/A speed=N/A elapsed=0:00:12.84    \nframe=    0 fps=0.0 q=0.0 size=       0KiB time=N/A bitrate=N/A speed=N/A elapsed=0:00:13.49    \nframe=    0 fps=0.0 q=0.0 size=       0KiB time=N/A bitrate=N/A speed=N/A elapsed=0:00:14.20    \nframe=    0 fps=0.0 q=0.0 size=       0KiB time=N/A bitrate=N/A speed=N/A elapsed=0:00:14.86    \nframe=    0 fps=0.0 q=0.0 size=       0KiB time=N/A bitrate=N/A speed=N/A elapsed=0:00:15.48    \nframe=    0 fps=0.0 q=0.0 size=       0KiB time=N/A bitrate=N/A speed=N/A elapsed=0:00:16.27    \nframe=    0 fps=0.0 q=0.0 size=       0KiB time=N/A bitrate=N/A speed=N/A elapsed=0:00:16.88    \nframe=    0 fps=0.0 q=0.0 size=       0KiB time=N/A bitrate=N/A speed=N/A elapsed=0:00:17.51    \nframe=    0 fps=0.0 q=0.0 size=       0KiB time=N/A bitrate=N/A speed=N/A elapsed=0:00:18.04    \nframe=    0 fps=0.0 q=0.0 size=       0KiB time=N/A bitrate=N/A speed=N/A elapsed=0:00:18.56    \nframe=    0 fps=0.0 q=0.0 size=       0KiB time=N/A bitrate=N/A speed=N/A elapsed=0:00:19.18    \nframe=    0 fps=0.0 q=0.0 size=       0KiB time=N/A bitrate=N/A speed=N/A elapsed=0:00:19.98    \nframe=    0 fps=0.0 q=0.0 size=       0KiB time=N/A bitrate=N/A speed=N/A elapsed=0:00:20.74    \nframe=    0 fps=0.0 q=0.0 size=       0KiB time=N/A bitrate=N/A speed=N/A elapsed=0:00:21.42    \nframe=    0 fps=0.0 q=0.0 size=       0KiB time=N/A bitrate=N/A speed=N/A elapsed=0:00:22.02    \nframe=    0 fps=0.0 q=0.0 size=       0KiB time=N/A bitrate=N/A speed=N/A elapsed=0:00:22.55    \nframe=    0 fps=0.0 q=0.0 size=       0KiB time=N/A bitrate=N/A speed=N/A elapsed=0:00:23.15    \nframe=    0 fps=0.0 q=0.0 size=       0KiB time=N/A bitrate=N/A speed=N/A elapsed=0:00:23.86    \nframe=    0 fps=0.0 q=0.0 size=       0KiB time=N/A bitrate=N/A speed=N/A elapsed=0:00:24.74    \nframe=    0 fps=0.0 q=0.0 size=       0KiB time=N/A bitrate=N/A speed=N/A elapsed=0:00:25.57    \nframe=    1 fps=0.0 q=39.0 size=       0KiB time=-00:00:00.01 bitrate=N/A speed=N/A elapsed=0:00:26.18    \nframe=    3 fps=0.1 q=43.3 size=       0KiB time=00:00:00.01 bitrate=  21.1kbits/s speed=0.000618x elapsed=0:00:26.96    \nframe=    4 fps=0.1 q=43.6 size=       0KiB time=00:00:00.03 bitrate=  10.6kbits/s speed=0.00121x elapsed=0:00:27.60    \nframe=    5 fps=0.2 q=42.0 size=       0KiB time=00:00:00.05 bitrate=   7.0kbits/s speed=0.00176x elapsed=0:00:28.34    \nframe=    5 fps=0.2 q=42.0 size=       0KiB time=00:00:00.05 bitrate=   7.0kbits/s speed=0.00171x elapsed=0:00:29.22    \nframe=    5 fps=0.2 q=42.0 size=       0KiB time=00:00:00.05 bitrate=   7.0kbits/s speed=0.00167x elapsed=0:00:29.90    \nframe=    5 fps=0.2 q=42.0 size=       0KiB time=00:00:00.05 bitrate=   7.0kbits/s speed=0.00163x elapsed=0:00:30.68    \nframe=    5 fps=0.2 q=42.0 size=       0KiB time=00:00:00.05 bitrate=   7.0kbits/s speed=0.0016x elapsed=0:00:31.25    \nframe=    5 fps=0.2 q=42.0 size=       0KiB time=00:00:00.05 bitrate=   7.0kbits/s speed=0.00157x elapsed=0:00:31.90    \nframe=    5 fps=0.2 q=42.0 size=       0KiB time=00:00:00.05 bitrate=   7.0kbits/s speed=0.00153x elapsed=0:00:32.66    \nframe=    6 fps=0.2 q=37.3 size=       0KiB time=00:00:00.06 bitrate=   5.3kbits/s speed=0.002x elapsed=0:00:33.29    \nframe=    6 fps=0.2 q=37.3 size=       0KiB time=00:00:00.06 bitrate=   5.3kbits/s speed=0.00196x elapsed=0:00:34.06    \nframe=    6 fps=0.2 q=37.3 size=       0KiB time=00:00:00.06 bitrate=   5.3kbits/s speed=0.00192x elapsed=0:00:34.78    \nframe=    7 fps=0.2 q=40.0 size=       0KiB time=00:00:00.08 bitrate=   4.2kbits/s speed=0.00235x elapsed=0:00:35.49    \nframe=    7 fps=0.2 q=40.0 size=       0KiB time=00:00:00.08 bitrate=   4.2kbits/s speed=0.0023x elapsed=0:00:36.26    \nframe=    8 fps=0.2 q=39.3 size=       0KiB time=00:00:00.08 bitrate=   4.2kbits/s speed=0.00227x elapsed=0:00:36.78    \nframe=    8 fps=0.2 q=39.3 size=       0KiB time=00:00:00.10 bitrate=   3.5kbits/s speed=0.00267x elapsed=0:00:37.40    \nframe=    8 fps=0.2 q=39.3 size=       0KiB time=00:00:00.10 bitrate=   3.5kbits/s speed=0.00264x elapsed=0:00:37.93    \nframe=    9 fps=0.2 q=39.9 size=       0KiB time=00:00:00.11 bitrate=   3.0kbits/s speed=0.00303x elapsed=0:00:38.53    \nframe=    9 fps=0.2 q=39.9 size=       0KiB time=00:00:00.11 bitrate=   3.0kbits/s speed=0.00299x elapsed=0:00:39.05    \nframe=    9 fps=0.2 q=39.9 size=       0KiB time=00:00:00.11 bitrate=   3.0kbits/s speed=0.00295x elapsed=0:00:39.59    \nframe=    9 fps=0.2 q=39.9 size=       0KiB time=00:00:00.11 bitrate=   3.0kbits/s speed=0.00291x elapsed=0:00:40.13    \nframe=    9 fps=0.2 q=39.9 size=       0KiB time=00:00:00.11 bitrate=   3.0kbits/s speed=0.00287x elapsed=0:00:40.65    \nframe=    9 fps=0.2 q=39.9 size=       0KiB time=00:00:00.11 bitrate=   3.0kbits/s speed=0.00283x elapsed=0:00:41.17    \nframe=    9 fps=0.2 q=39.9 size=       0KiB time=00:00:00.11 bitrate=   3.0kbits/s speed=0.0028x elapsed=0:00:41.70    \nframe=    9 fps=0.2 q=39.9 size=       0KiB time=00:00:00.11 bitrate=   3.0kbits/s speed=0.00276x elapsed=0:00:42.31    \nframe=    9 fps=0.2 q=39.9 size=       0KiB time=00:00:00.11 bitrate=   3.0kbits/s speed=0.00272x elapsed=0:00:42.85    \nframe=   10 fps=0.2 q=40.8 size=       0KiB time=00:00:00.13 bitrate=   2.6kbits/s speed=0.00307x elapsed=0:00:43.37    \nframe=   10 fps=0.2 q=40.8 size=       0KiB time=00:00:00.13 bitrate=   2.6kbits/s speed=0.00304x elapsed=0:00:43.93    \nframe=   10 fps=0.2 q=40.8 size=       0KiB time=00:00:00.13 bitrate=   2.6kbits/s speed=0.003x elapsed=0:00:44.44    \nframe=   10 fps=0.2 q=40.8 size=       0KiB time=00:00:00.13 bitrate=   2.6kbits/s speed=0.00296x elapsed=0:00:44.99    \nframe=   10 fps=0.2 q=40.8 size=       0KiB time=00:00:00.13 bitrate=   2.6kbits/s speed=0.00293x elapsed=0:00:45.52    \nframe=   10 fps=0.2 q=40.8 size=       0KiB time=00:00:00.13 bitrate=   2.6kbits/s speed=0.0029x elapsed=0:00:46.04    \nframe=   10 fps=0.2 q=40.8 size=       0KiB time=00:00:00.13 bitrate=   2.6kbits/s speed=0.00286x elapsed=0:00:46.56    \nframe=   10 fps=0.2 q=40.8 size=       0KiB time=00:00:00.13 bitrate=   2.6kbits/s speed=0.00283x elapsed=0:00:47.09    \nframe=   10 fps=0.2 q=40.8 size=       0KiB time=00:00:00.13 bitrate=   2.6kbits/s speed=0.0028x elapsed=0:00:47.61    \nframe=   10 fps=0.2 q=40.8 size=       0KiB time=00:00:00.13 bitrate=   2.6kbits/s speed=0.00277x elapsed=0:00:48.19    \nframe=   10 fps=0.2 q=40.8 size=       0KiB time=00:00:00.13 bitrate=   2.6kbits/s speed=0.00274x elapsed=0:00:48.73    \nframe=   11 fps=0.2 q=35.1 size=       0KiB time=00:00:00.15 bitrate=   2.3kbits/s speed=0.00304x elapsed=0:00:49.27    \nframe=   12 fps=0.2 q=39.4 size=       0KiB time=00:00:00.16 bitrate=   2.1kbits/s speed=0.00335x elapsed=0:00:49.79    \nframe=   13 fps=0.3 q=41.0 size=       0KiB time=00:00:00.18 bitrate=   1.9kbits/s speed=0.00364x elapsed=0:00:50.31    \nframe=   14 fps=0.3 q=40.7 size=       0KiB time=00:00:00.20 bitrate=   1.8kbits/s speed=0.00393x elapsed=0:00:50.83    \nframe=   14 fps=0.3 q=40.7 size=       0KiB time=00:00:00.20 bitrate=   1.8kbits/s speed=0.00389x elapsed=0:00:51.36    \nframe=   15 fps=0.3 q=35.3 size=       0KiB time=00:00:00.21 bitrate=   1.6kbits/s speed=0.00418x elapsed=0:00:51.88    \nframe=   16 fps=0.3 q=36.6 size=       0KiB time=00:00:00.23 bitrate=   1.5kbits/s speed=0.00445x elapsed=0:00:52.42    \nframe=   17 fps=0.3 q=40.1 size=       0KiB time=00:00:00.25 bitrate=   1.4kbits/s speed=0.00472x elapsed=0:00:52.94    \nframe=   17 fps=0.3 q=40.1 size=       0KiB time=00:00:00.25 bitrate=   1.4kbits/s speed=0.00468x elapsed=0:00:53.46    \nframe=   17 fps=0.3 q=40.1 size=       0KiB time=00:00:00.25 bitrate=   1.4kbits/s speed=0.00463x elapsed=0:00:53.99    \nframe=   17 fps=0.3 q=40.1 size=       0KiB time=00:00:00.25 bitrate=   1.4kbits/s speed=0.00459x elapsed=0:00:54.51    \nframe=   17 fps=0.3 q=40.1 size=       0KiB time=00:00:00.25 bitrate=   1.4kbits/s speed=0.00454x elapsed=0:00:55.04    \nframe=   17 fps=0.3 q=40.1 size=       0KiB time=00:00:00.25 bitrate=   1.4kbits/s speed=0.0045x elapsed=0:00:55.59    \nframe=   17 fps=0.3 q=40.1 size=       0KiB time=00:00:00.25 bitrate=   1.4kbits/s speed=0.00445x elapsed=0:00:56.13    \nframe=   18 fps=0.3 q=39.9 size=       0KiB time=00:00:00.26 bitrate=   1.3kbits/s speed=0.00471x elapsed=0:00:56.66    \nframe=   18 fps=0.3 q=39.9 size=       0KiB time=00:00:00.26 bitrate=   1.3kbits/s speed=0.00466x elapsed=0:00:57.19    \nframe=   18 fps=0.3 q=39.9 size=       0KiB time=00:00:00.26 bitrate=   1.3kbits/s speed=0.00462x elapsed=0:00:57.70    \nframe=   18 fps=0.3 q=39.9 size=       0KiB time=00:00:00.26 bitrate=   1.3kbits/s speed=0.00458x elapsed=0:00:58.23    \nframe=   18 fps=0.3 q=39.9 size=       0KiB time=00:00:00.26 bitrate=   1.3kbits/s speed=0.00454x elapsed=0:00:58.79    \nframe=   18 fps=0.3 q=39.9 size=       0KiB time=00:00:00.26 bitrate=   1.3kbits/s speed=0.0045x elapsed=0:00:59.30    \nframe=   19 fps=0.3 q=40.2 size=       0KiB time=00:00:00.28 bitrate=   1.2kbits/s speed=0.00473x elapsed=0:00:59.85    \nframe=   19 fps=0.3 q=40.2 size=       0KiB time=00:00:00.28 bitrate=   1.2kbits/s speed=0.00469x elapsed=0:01:00.38    \nframe=   20 fps=0.3 q=35.1 size=       0KiB time=00:00:00.30 bitrate=   1.2kbits/s speed=0.00492x elapsed=0:01:00.98    \nframe=   20 fps=0.3 q=35.1 size=       0KiB time=00:00:00.30 bitrate=   1.2kbits/s speed=0.00488x elapsed=0:01:01.49    \nframe=   20 fps=0.3 q=35.1 size=       0KiB time=00:00:00.30 bitrate=   1.2kbits/s speed=0.00484x elapsed=0:01:02.02    \nframe=   20 fps=0.3 q=35.1 size=       0KiB time=00:00:00.30 bitrate=   1.2kbits/s speed=0.00479x elapsed=0:01:02.56    \nframe=   20 fps=0.3 q=35.1 size=       0KiB time=00:00:00.30 bitrate=   1.2kbits/s speed=0.00476x elapsed=0:01:03.08    \nframe=   21 fps=0.3 q=37.6 size=       0KiB time=00:00:00.31 bitrate=   1.1kbits/s speed=0.00498x elapsed=0:01:03.63    \nframe=   22 fps=0.3 q=39.8 size=       0KiB time=00:00:00.33 bitrate=   1.1kbits/s speed=0.0052x elapsed=0:01:04.15    \nframe=   22 fps=0.3 q=39.8 size=       0KiB time=00:00:00.33 bitrate=   1.1kbits/s speed=0.00515x elapsed=0:01:04.69    \nframe=   23 fps=0.4 q=39.7 size=       0KiB time=00:00:00.35 bitrate=   1.0kbits/s speed=0.00537x elapsed=0:01:05.20    \nframe=   23 fps=0.3 q=39.7 size=       0KiB time=00:00:00.35 bitrate=   1.0kbits/s speed=0.00532x elapsed=0:01:05.73    \nframe=   23 fps=0.3 q=39.7 size=       0KiB time=00:00:00.35 bitrate=   1.0kbits/s speed=0.00528x elapsed=0:01:06.27    \nframe=   23 fps=0.3 q=39.7 size=       0KiB time=00:00:00.35 bitrate=   1.0kbits/s speed=0.00524x elapsed=0:01:06.82    \nframe=   23 fps=0.3 q=39.7 size=       0KiB time=00:00:00.35 bitrate=   1.0kbits/s speed=0.0052x elapsed=0:01:07.34    \nframe=   23 fps=0.3 q=39.7 size=       0KiB time=00:00:00.35 bitrate=   1.0kbits/s speed=0.00515x elapsed=0:01:07.93    \nframe=   23 fps=0.3 q=39.7 size=       0KiB time=00:00:00.35 bitrate=   1.0kbits/s speed=0.00511x elapsed=0:01:08.50    \nframe=   23 fps=0.3 q=39.7 size=       0KiB time=00:00:00.35 bitrate=   1.0kbits/s speed=0.00507x elapsed=0:01:09.03    \nframe=   23 fps=0.3 q=39.7 size=       0KiB time=00:00:00.35 bitrate=   1.0kbits/s speed=0.00503x elapsed=0:01:09.53    \nframe=   24 fps=0.3 q=34.6 size=       0KiB time=00:00:00.36 bitrate=   1.0kbits/s speed=0.00523x elapsed=0:01:10.06    \nframe=   24 fps=0.3 q=34.6 size=       0KiB time=00:00:00.36 bitrate=   1.0kbits/s speed=0.00519x elapsed=0:01:10.66    \nframe=   24 fps=0.3 q=34.6 size=       0KiB time=00:00:00.36 bitrate=   1.0kbits/s speed=0.00515x elapsed=0:01:11.18    \nframe=   24 fps=0.3 q=34.6 size=       0KiB time=00:00:00.36 bitrate=   1.0kbits/s speed=0.00511x elapsed=0:01:11.69    \nframe=   24 fps=0.3 q=34.6 size=       0KiB time=00:00:00.36 bitrate=   1.0kbits/s speed=0.00508x elapsed=0:01:12.23    \nframe=   24 fps=0.3 q=34.6 size=       0KiB time=00:00:00.36 bitrate=   1.0kbits/s speed=0.00504x elapsed=0:01:12.77    \nframe=   24 fps=0.3 q=34.6 size=       0KiB time=00:00:00.36 bitrate=   1.0kbits/s speed=0.005x elapsed=0:01:13.28    \nframe=   24 fps=0.3 q=34.6 size=       0KiB time=00:00:00.36 bitrate=   1.0kbits/s speed=0.00497x elapsed=0:01:13.79    \nframe=   24 fps=0.3 q=34.6 size=       0KiB time=00:00:00.36 bitrate=   1.0kbits/s speed=0.00493x elapsed=0:01:14.30    \nframe=   24 fps=0.3 q=34.6 size=       0KiB time=00:00:00.36 bitrate=   1.0kbits/s speed=0.0049x elapsed=0:01:14.82    \nframe=   25 fps=0.3 q=37.6 size=       0KiB time=00:00:00.38 bitrate=   0.9kbits/s speed=0.00508x elapsed=0:01:15.40    \nframe=   25 fps=0.3 q=37.6 size=       0KiB time=00:00:00.38 bitrate=   0.9kbits/s speed=0.00505x elapsed=0:01:15.91    \nframe=   26 fps=0.3 q=39.2 size=       0KiB time=00:00:00.40 bitrate=   0.9kbits/s speed=0.00523x elapsed=0:01:16.43    \nframe=   26 fps=0.3 q=39.2 size=       0KiB time=00:00:00.40 bitrate=   0.9kbits/s speed=0.0052x elapsed=0:01:16.99    \nframe=   26 fps=0.3 q=39.2 size=       0KiB time=00:00:00.40 bitrate=   0.9kbits/s speed=0.00516x elapsed=0:01:17.51    \nframe=   27 fps=0.3 q=39.1 size=       0KiB time=00:00:00.41 bitrate=   0.8kbits/s speed=0.00534x elapsed=0:01:18.04    \nframe=   27 fps=0.3 q=39.1 size=       0KiB time=00:00:00.41 bitrate=   0.8kbits/s speed=0.0053x elapsed=0:01:18.56    \nframe=   27 fps=0.3 q=39.1 size=       0KiB time=00:00:00.41 bitrate=   0.8kbits/s speed=0.00527x elapsed=0:01:19.08    \nframe=   27 fps=0.3 q=39.1 size=       0KiB time=00:00:00.41 bitrate=   0.8kbits/s speed=0.00523x elapsed=0:01:19.63    \nframe=   28 fps=0.3 q=34.3 size=       0KiB time=00:00:00.43 bitrate=   0.8kbits/s speed=0.00541x elapsed=0:01:20.16    \nframe=   28 fps=0.3 q=34.3 size=       0KiB time=00:00:00.43 bitrate=   0.8kbits/s speed=0.00537x elapsed=0:01:20.68    \nframe=   29 fps=0.4 q=37.4 size=       0KiB time=00:00:00.45 bitrate=   0.8kbits/s speed=0.00554x elapsed=0:01:21.21    \nframe=   29 fps=0.4 q=37.4 size=       0KiB time=00:00:00.45 bitrate=   0.8kbits/s speed=0.0055x elapsed=0:01:21.77    \nframe=   30 fps=0.4 q=39.2 size=       0KiB time=00:00:00.46 bitrate=   0.8kbits/s speed=0.00567x elapsed=0:01:22.29    \nframe=   30 fps=0.4 q=39.2 size=       0KiB time=00:00:00.46 bitrate=   0.8kbits/s speed=0.00564x elapsed=0:01:22.81    \nframe=   30 fps=0.4 q=39.2 size=       0KiB time=00:00:00.46 bitrate=   0.8kbits/s speed=0.0056x elapsed=0:01:23.34    \nframe=   31 fps=0.4 q=39.3 size=       0KiB time=00:00:00.48 bitrate=   0.7kbits/s speed=0.00576x elapsed=0:01:23.87    \nframe=   31 fps=0.4 q=39.3 size=       0KiB time=00:00:00.48 bitrate=   0.7kbits/s speed=0.00573x elapsed=0:01:24.39    \nframe=   31 fps=0.4 q=39.3 size=       0KiB time=00:00:00.48 bitrate=   0.7kbits/s speed=0.00569x elapsed=0:01:24.98    \nframe=   31 fps=0.4 q=39.3 size=       0KiB time=00:00:00.48 bitrate=   0.7kbits/s speed=0.00565x elapsed=0:01:25.50    \nframe=   31 fps=0.4 q=39.3 size=       0KiB time=00:00:00.48 bitrate=   0.7kbits/s speed=0.00562x elapsed=0:01:26.03    \nframe=   32 fps=0.4 q=34.3 size=       0KiB time=00:00:00.50 bitrate=   0.7kbits/s speed=0.00578x elapsed=0:01:26.55    \nframe=   33 fps=0.4 q=37.6 size=       0KiB time=00:00:00.51 bitrate=   0.7kbits/s speed=0.00593x elapsed=0:01:27.07    \nframe=   33 fps=0.4 q=37.6 size=       0KiB time=00:00:00.51 bitrate=   0.7kbits/s speed=0.0059x elapsed=0:01:27.59    \nframe=   33 fps=0.4 q=37.6 size=       0KiB time=00:00:00.51 bitrate=   0.7kbits/s speed=0.00586x elapsed=0:01:28.11    \nframe=   33 fps=0.4 q=37.6 size=       0KiB time=00:00:00.51 bitrate=   0.7kbits/s speed=0.00583x elapsed=0:01:28.63    \nframe=   33 fps=0.4 q=37.6 size=       0KiB time=00:00:00.51 bitrate=   0.7kbits/s speed=0.00579x elapsed=0:01:29.19    \nframe=   33 fps=0.4 q=37.6 size=       0KiB time=00:00:00.51 bitrate=   0.7kbits/s speed=0.00576x elapsed=0:01:29.70    \nframe=   33 fps=0.4 q=37.6 size=       0KiB time=00:00:00.51 bitrate=   0.7kbits/s speed=0.00572x elapsed=0:01:30.27    \nframe=   33 fps=0.4 q=37.6 size=       0KiB time=00:00:00.51 bitrate=   0.7kbits/s speed=0.00569x elapsed=0:01:30.79    \nframe=   33 fps=0.4 q=37.6 size=       0KiB time=00:00:00.51 bitrate=   0.7kbits/s speed=0.00566x elapsed=0:01:31.33    \nframe=   33 fps=0.4 q=37.6 size=       0KiB time=00:00:00.51 bitrate=   0.7kbits/s speed=0.00562x elapsed=0:01:31.89    \nframe=   34 fps=0.4 q=39.4 size=       0KiB time=00:00:00.53 bitrate=   0.7kbits/s speed=0.00577x elapsed=0:01:32.41    \nframe=   34 fps=0.4 q=39.4 size=       0KiB time=00:00:00.53 bitrate=   0.7kbits/s speed=0.00574x elapsed=0:01:32.98    \nframe=   34 fps=0.4 q=39.4 size=       0KiB time=00:00:00.53 bitrate=   0.7kbits/s speed=0.0057x elapsed=0:01:33.49    \nframe=   34 fps=0.4 q=39.4 size=       0KiB time=00:00:00.53 bitrate=   0.7kbits/s speed=0.00567x elapsed=0:01:34.03    \nframe=   34 fps=0.4 q=39.4 size=       0KiB time=00:00:00.53 bitrate=   0.7kbits/s speed=0.00564x elapsed=0:01:34.56    \nframe=   34 fps=0.4 q=39.4 size=       0KiB time=00:00:00.53 bitrate=   0.7kbits/s speed=0.00561x elapsed=0:01:35.09    \nframe=   34 fps=0.4 q=39.4 size=       0KiB time=00:00:00.53 bitrate=   0.7kbits/s speed=0.00558x elapsed=0:01:35.60    \nframe=   34 fps=0.4 q=39.4 size=       0KiB time=00:00:00.53 bitrate=   0.7kbits/s speed=0.00555x elapsed=0:01:36.15    \nframe=   35 fps=0.4 q=39.5 size=       0KiB time=00:00:00.55 bitrate=   0.6kbits/s speed=0.00569x elapsed=0:01:36.72    \nframe=   35 fps=0.4 q=39.5 size=       0KiB time=00:00:00.55 bitrate=   0.6kbits/s speed=0.00566x elapsed=0:01:37.24    \nframe=   36 fps=0.4 q=33.9 size=       0KiB time=00:00:00.56 bitrate=   0.6kbits/s speed=0.0058x elapsed=0:01:37.78    \nframe=   37 fps=0.4 q=37.4 size=       0KiB time=00:00:00.58 bitrate=   0.6kbits/s speed=0.00593x elapsed=0:01:38.32    \nframe=   38 fps=0.4 q=39.5 size=       0KiB time=00:00:00.60 bitrate=   0.6kbits/s speed=0.00607x elapsed=0:01:38.84    \nframe=   38 fps=0.4 q=39.5 size=       0KiB time=00:00:00.60 bitrate=   0.6kbits/s speed=0.00604x elapsed=0:01:39.35    \nframe=   38 fps=0.4 q=39.5 size=       0KiB time=00:00:00.60 bitrate=   0.6kbits/s speed=0.00601x elapsed=0:01:39.89    \nframe=   38 fps=0.4 q=39.5 size=       0KiB time=00:00:00.60 bitrate=   0.6kbits/s speed=0.00597x elapsed=0:01:40.42    \nframe=   38 fps=0.4 q=39.5 size=       0KiB time=00:00:00.60 bitrate=   0.6kbits/s speed=0.00594x elapsed=0:01:40.98    \nframe=   38 fps=0.4 q=39.5 size=       0KiB time=00:00:00.60 bitrate=   0.6kbits/s speed=0.00591x elapsed=0:01:41.51    \nframe=   38 fps=0.4 q=39.5 size=       0KiB time=00:00:00.60 bitrate=   0.6kbits/s speed=0.00588x elapsed=0:01:42.03    \nframe=   39 fps=0.4 q=39.3 size=       0KiB time=00:00:00.61 bitrate=   0.6kbits/s speed=0.00601x elapsed=0:01:42.55    \nframe=   39 fps=0.4 q=39.3 size=       0KiB time=00:00:00.61 bitrate=   0.6kbits/s speed=0.00598x elapsed=0:01:43.07    \nframe=   40 fps=0.4 q=34.1 size=       0KiB time=00:00:00.63 bitrate=   0.6kbits/s speed=0.00611x elapsed=0:01:43.59    \nframe=   40 fps=0.4 q=34.1 size=       0KiB time=00:00:00.63 bitrate=   0.6kbits/s speed=0.00608x elapsed=0:01:44.11    \nframe=   40 fps=0.4 q=34.1 size=       0KiB time=00:00:00.63 bitrate=   0.6kbits/s speed=0.00605x elapsed=0:01:44.64    \nframe=   40 fps=0.4 q=34.1 size=       0KiB time=00:00:00.63 bitrate=   0.6kbits/s speed=0.00602x elapsed=0:01:45.16    \nframe=   40 fps=0.4 q=34.1 size=       0KiB time=00:00:00.63 bitrate=   0.6kbits/s speed=0.00599x elapsed=0:01:45.67    \nframe=   41 fps=0.4 q=37.0 size=       0KiB time=00:00:00.65 bitrate=   0.5kbits/s speed=0.00612x elapsed=0:01:46.20    \nframe=   41 fps=0.4 q=37.0 size=       0KiB time=00:00:00.65 bitrate=   0.5kbits/s speed=0.00609x elapsed=0:01:46.72    \nframe=   41 fps=0.4 q=37.0 size=       0KiB time=00:00:00.65 bitrate=   0.5kbits/s speed=0.00606x elapsed=0:01:47.29    \nframe=   42 fps=0.4 q=39.3 size=       0KiB time=00:00:00.66 bitrate=   0.5kbits/s speed=0.00618x elapsed=0:01:47.82    \nframe=   42 fps=0.4 q=39.3 size=       0KiB time=00:00:00.66 bitrate=   0.5kbits/s speed=0.00615x elapsed=0:01:48.33    \nframe=   42 fps=0.4 q=39.3 size=       0KiB time=00:00:00.66 bitrate=   0.5kbits/s speed=0.00612x elapsed=0:01:48.86    \nframe=   42 fps=0.4 q=39.3 size=       0KiB time=00:00:00.66 bitrate=   0.5kbits/s speed=0.0061x elapsed=0:01:49.36    \nframe=   42 fps=0.4 q=39.3 size=       0KiB time=00:00:00.66 bitrate=   0.5kbits/s speed=0.00607x elapsed=0:01:49.89    \nframe=   43 fps=0.4 q=39.3 size=       0KiB time=00:00:00.68 bitrate=   0.5kbits/s speed=0.00619x elapsed=0:01:50.40    \nframe=   43 fps=0.4 q=39.3 size=       0KiB time=00:00:00.68 bitrate=   0.5kbits/s speed=0.00616x elapsed=0:01:50.91    \nframe=   43 fps=0.4 q=39.3 size=       0KiB time=00:00:00.68 bitrate=   0.5kbits/s speed=0.00613x elapsed=0:01:51.44    \nframe=   43 fps=0.4 q=39.3 size=       0KiB time=00:00:00.68 bitrate=   0.5kbits/s speed=0.0061x elapsed=0:01:51.96    \nframe=   43 fps=0.4 q=39.3 size=       0KiB time=00:00:00.68 bitrate=   0.5kbits/s speed=0.00608x elapsed=0:01:52.47    \nframe=   44 fps=0.4 q=34.0 size=       0KiB time=00:00:00.70 bitrate=   0.5kbits/s speed=0.00619x elapsed=0:01:53.00    \nframe=   44 fps=0.4 q=34.0 size=       0KiB time=00:00:00.70 bitrate=   0.5kbits/s speed=0.00617x elapsed=0:01:53.52    \nframe=   45 fps=0.4 q=38.0 size=       0KiB time=00:00:00.71 bitrate=   0.5kbits/s speed=0.00628x elapsed=0:01:54.05    \nframe=   45 fps=0.4 q=38.0 size=       0KiB time=00:00:00.71 bitrate=   0.5kbits/s speed=0.00625x elapsed=0:01:54.62    \nframe=   45 fps=0.4 q=38.0 size=       0KiB time=00:00:00.71 bitrate=   0.5kbits/s speed=0.00622x elapsed=0:01:55.13    \nframe=   45 fps=0.4 q=38.0 size=       0KiB time=00:00:00.71 bitrate=   0.5kbits/s speed=0.0062x elapsed=0:01:55.66    \nframe=   45 fps=0.4 q=38.0 size=       0KiB time=00:00:00.71 bitrate=   0.5kbits/s speed=0.00617x elapsed=0:01:56.19    \nframe=   46 fps=0.4 q=39.1 size=       0KiB time=00:00:00.73 bitrate=   0.5kbits/s speed=0.00628x elapsed=0:01:56.70    \nframe=   47 fps=0.4 q=39.0 size=       0KiB time=00:00:00.75 bitrate=   0.5kbits/s speed=0.0064x elapsed=0:01:57.23    \nframe=   47 fps=0.4 q=39.0 size=       0KiB time=00:00:00.75 bitrate=   0.5kbits/s speed=0.00637x elapsed=0:01:57.75    \nframe=   47 fps=0.4 q=39.0 size=       0KiB time=00:00:00.75 bitrate=   0.5kbits/s speed=0.00634x elapsed=0:01:58.30    \nframe=   47 fps=0.4 q=39.0 size=       0KiB time=00:00:00.75 bitrate=   0.5kbits/s speed=0.00631x elapsed=0:01:58.85    \nframe=   47 fps=0.4 q=39.0 size=       0KiB time=00:00:00.75 bitrate=   0.5kbits/s speed=0.00628x elapsed=0:01:59.38    \nframe=   48 fps=0.4 q=39.1 size=       0KiB time=00:00:00.76 bitrate=   0.5kbits/s speed=0.00639x elapsed=0:01:59.91    \nframe=   48 fps=0.4 q=39.1 size=       0KiB time=00:00:00.76 bitrate=   0.5kbits/s speed=0.00637x elapsed=0:02:00.42    \nframe=   49 fps=0.4 q=34.1 size=       0KiB time=00:00:00.78 bitrate=   0.4kbits/s speed=0.00648x elapsed=0:02:00.97    \nframe=   50 fps=0.4 q=37.1 size=       0KiB time=00:00:00.80 bitrate=   0.4kbits/s speed=0.00658x elapsed=0:02:01.50    \nframe=   50 fps=0.4 q=37.1 size=       0KiB time=00:00:00.80 bitrate=   0.4kbits/s speed=0.00656x elapsed=0:02:02.02    \nframe=   51 fps=0.4 q=39.2 size=       0KiB time=00:00:00.81 bitrate=   0.4kbits/s speed=0.00666x elapsed=0:02:02.54    \nframe=   51 fps=0.4 q=39.2 size=       0KiB time=00:00:00.81 bitrate=   0.4kbits/s speed=0.00663x elapsed=0:02:03.09    \nframe=   51 fps=0.4 q=39.2 size=       0KiB time=00:00:00.81 bitrate=   0.4kbits/s speed=0.00661x elapsed=0:02:03.61    \nframe=   52 fps=0.4 q=39.3 size=       0KiB time=00:00:00.83 bitrate=   0.4kbits/s speed=0.00671x elapsed=0:02:04.12    \nframe=   52 fps=0.4 q=39.3 size=       0KiB time=00:00:00.83 bitrate=   0.4kbits/s speed=0.00669x elapsed=0:02:04.65    \nframe=   52 fps=0.4 q=39.3 size=       0KiB time=00:00:00.83 bitrate=   0.4kbits/s speed=0.00666x elapsed=0:02:05.17    \nframe=   52 fps=0.4 q=39.3 size=       0KiB time=00:00:00.83 bitrate=   0.4kbits/s speed=0.00663x elapsed=0:02:05.72    \nframe=   52 fps=0.4 q=39.3 size=       0KiB time=00:00:00.83 bitrate=   0.4kbits/s speed=0.0066x elapsed=0:02:06.26    \nframe=   52 fps=0.4 q=39.3 size=       0KiB time=00:00:00.83 bitrate=   0.4kbits/s speed=0.00657x elapsed=0:02:06.77    \nframe=   52 fps=0.4 q=39.3 size=       0KiB time=00:00:00.83 bitrate=   0.4kbits/s speed=0.00655x elapsed=0:02:07.31    \nframe=   53 fps=0.4 q=34.8 size=       0KiB time=00:00:00.85 bitrate=   0.4kbits/s speed=0.00665x elapsed=0:02:07.83    \nframe=   54 fps=0.4 q=37.3 size=       0KiB time=00:00:00.86 bitrate=   0.4kbits/s speed=0.00675x elapsed=0:02:08.35    \nframe=   54 fps=0.4 q=37.3 size=       0KiB time=00:00:00.86 bitrate=   0.4kbits/s speed=0.00672x elapsed=0:02:08.88    \nframe=   55 fps=0.4 q=39.5 size=       0KiB time=00:00:00.88 bitrate=   0.4kbits/s speed=0.00682x elapsed=0:02:09.42    \nframe=   55 fps=0.4 q=39.5 size=       0KiB time=00:00:00.88 bitrate=   0.4kbits/s speed=0.0068x elapsed=0:02:09.94    \nframe=   55 fps=0.4 q=39.5 size=       0KiB time=00:00:00.88 bitrate=   0.4kbits/s speed=0.00677x elapsed=0:02:10.44    \nframe=   55 fps=0.4 q=39.5 size=       0KiB time=00:00:00.88 bitrate=   0.4kbits/s speed=0.00674x elapsed=0:02:10.97    \nframe=   56 fps=0.4 q=39.3 size=       0KiB time=00:00:00.88 bitrate=   0.4kbits/s speed=0.00672x elapsed=0:02:11.49    \nframe=   56 fps=0.4 q=39.3 size=       0KiB time=00:00:00.90 bitrate=   0.4kbits/s speed=0.00682x elapsed=0:02:12.02    \nframe=   57 fps=0.4 q=34.4 size=       0KiB time=00:00:00.91 bitrate=   0.4kbits/s speed=0.00692x elapsed=0:02:12.54    \nframe=   58 fps=0.4 q=37.6 size=       0KiB time=00:00:00.93 bitrate=   0.4kbits/s speed=0.00701x elapsed=0:02:13.05    \nframe=   58 fps=0.4 q=37.6 size=       0KiB time=00:00:00.93 bitrate=   0.4kbits/s speed=0.00699x elapsed=0:02:13.57    \nframe=   59 fps=0.4 q=39.5 size=       0KiB time=00:00:00.95 bitrate=   0.4kbits/s speed=0.00708x elapsed=0:02:14.10    \nframe=   59 fps=0.4 q=39.5 size=       0KiB time=00:00:00.95 bitrate=   0.4kbits/s speed=0.00706x elapsed=0:02:14.62    \nframe=   59 fps=0.4 q=39.5 size=       0KiB time=00:00:00.95 bitrate=   0.4kbits/s speed=0.00703x elapsed=0:02:15.13    \nframe=   59 fps=0.4 q=39.5 size=       0KiB time=00:00:00.95 bitrate=   0.4kbits/s speed=0.007x elapsed=0:02:15.64    \nframe=   60 fps=0.4 q=34.3 size=       0KiB time=00:00:00.96 bitrate=   0.4kbits/s speed=0.0071x elapsed=0:02:16.17    \nframe=   61 fps=0.4 q=38.0 size=       0KiB time=00:00:00.98 bitrate=   0.4kbits/s speed=0.00719x elapsed=0:02:16.69    \nframe=   61 fps=0.4 q=38.0 size=       0KiB time=00:00:00.98 bitrate=   0.4kbits/s speed=0.00717x elapsed=0:02:17.20    \nframe=   62 fps=0.5 q=39.3 size=       0KiB time=00:00:01.00 bitrate=   0.4kbits/s speed=0.00726x elapsed=0:02:17.71    \nframe=   62 fps=0.4 q=39.3 size=       0KiB time=00:00:01.00 bitrate=   0.4kbits/s speed=0.00723x elapsed=0:02:18.22    \nframe=   63 fps=0.5 q=39.3 size=       0KiB time=00:00:01.01 bitrate=   0.3kbits/s speed=0.00733x elapsed=0:02:18.75    \nframe=   64 fps=0.5 q=39.2 size=       0KiB time=00:00:01.03 bitrate=   0.3kbits/s speed=0.00742x elapsed=0:02:19.26    \nframe=   64 fps=0.5 q=39.2 size=       0KiB time=00:00:01.03 bitrate=   0.3kbits/s speed=0.00739x elapsed=0:02:19.81    \nframe=   65 fps=0.5 q=35.2 size=       0KiB time=00:00:01.05 bitrate=   0.3kbits/s speed=0.00748x elapsed=0:02:20.32    \nframe=   66 fps=0.5 q=38.1 size=       0KiB time=00:00:01.06 bitrate=   0.3kbits/s speed=0.00757x elapsed=0:02:20.84    \nframe=   66 fps=0.5 q=38.1 size=       0KiB time=00:00:01.06 bitrate=   0.3kbits/s speed=0.00754x elapsed=0:02:21.37    \nframe=   67 fps=0.5 q=38.9 size=       0KiB time=00:00:01.08 bitrate=   0.3kbits/s speed=0.00763x elapsed=0:02:21.89    \nframe=   67 fps=0.5 q=38.9 size=       0KiB time=00:00:01.08 bitrate=   0.3kbits/s speed=0.00761x elapsed=0:02:22.43    \nframe=   67 fps=0.5 q=38.9 size=       0KiB time=00:00:01.08 bitrate=   0.3kbits/s speed=0.00758x elapsed=0:02:22.96    \nframe=   67 fps=0.5 q=38.9 size=       0KiB time=00:00:01.08 bitrate=   0.3kbits/s speed=0.00755x elapsed=0:02:23.49    \nframe=   67 fps=0.5 q=38.9 size=       0KiB time=00:00:01.08 bitrate=   0.3kbits/s speed=0.00752x elapsed=0:02:24.03    \nframe=   67 fps=0.5 q=38.9 size=       0KiB time=00:00:01.08 bitrate=   0.3kbits/s speed=0.00749x elapsed=0:02:24.55    \nframe=   67 fps=0.5 q=38.9 size=       0KiB time=00:00:01.08 bitrate=   0.3kbits/s speed=0.00747x elapsed=0:02:25.08    \nframe=   67 fps=0.5 q=38.9 size=       0KiB time=00:00:01.08 bitrate=   0.3kbits/s speed=0.00744x elapsed=0:02:25.64    \nframe=   67 fps=0.5 q=38.9 size=       0KiB time=00:00:01.08 bitrate=   0.3kbits/s speed=0.00741x elapsed=0:02:26.15    \nframe=   67 fps=0.5 q=38.9 size=       0KiB time=00:00:01.08 bitrate=   0.3kbits/s speed=0.00739x elapsed=0:02:26.68    \nframe=   67 fps=0.5 q=38.9 size=       0KiB time=00:00:01.08 bitrate=   0.3kbits/s speed=0.00736x elapsed=0:02:27.23    \nframe=   68 fps=0.5 q=39.1 size=       0KiB time=00:00:01.10 bitrate=   0.3kbits/s speed=0.00744x elapsed=0:02:27.75    \nframe=   68 fps=0.5 q=39.1 size=       0KiB time=00:00:01.10 bitrate=   0.3kbits/s speed=0.00742x elapsed=0:02:28.26    \nframe=   68 fps=0.5 q=39.1 size=       0KiB time=00:00:01.10 bitrate=   0.3kbits/s speed=0.00739x elapsed=0:02:28.78    \nframe=   68 fps=0.5 q=39.1 size=       0KiB time=00:00:01.10 bitrate=   0.3kbits/s speed=0.00737x elapsed=0:02:29.31    \nframe=   69 fps=0.5 q=39.7 size=     256KiB time=00:00:01.11 bitrate=1878.4kbits/s speed=0.00745x elapsed=0:02:29.84    \nframe=   69 fps=0.5 q=39.7 size=     256KiB time=00:00:01.11 bitrate=1878.4kbits/s speed=0.00743x elapsed=0:02:30.35    \nframe=   69 fps=0.5 q=39.7 size=     256KiB time=00:00:01.11 bitrate=1878.4kbits/s speed=0.0074x elapsed=0:02:30.87    \nframe=   69 fps=0.5 q=39.7 size=     256KiB time=00:00:01.11 bitrate=1878.4kbits/s speed=0.00737x elapsed=0:02:31.43    \nframe=   70 fps=0.5 q=34.9 size=     256KiB time=00:00:01.13 bitrate=1850.7kbits/s speed=0.00746x elapsed=0:02:31.95    \nframe=   71 fps=0.5 q=39.3 size=     256KiB time=00:00:01.15 bitrate=1823.9kbits/s speed=0.00754x elapsed=0:02:32.47    \nframe=   71 fps=0.5 q=39.3 size=     256KiB time=00:00:01.15 bitrate=1823.9kbits/s speed=0.00752x elapsed=0:02:32.99    \nframe=   71 fps=0.5 q=39.3 size=     256KiB time=00:00:01.15 bitrate=1823.9kbits/s speed=0.00749x elapsed=0:02:33.50    \nframe=   71 fps=0.5 q=39.3 size=     256KiB time=00:00:01.15 bitrate=1823.9kbits/s speed=0.00747x elapsed=0:02:34.04    \nframe=   71 fps=0.5 q=39.3 size=     256KiB time=00:00:01.15 bitrate=1823.9kbits/s speed=0.00744x elapsed=0:02:34.56    \nframe=   72 fps=0.5 q=34.9 size=     256KiB time=00:00:01.16 bitrate=1797.9kbits/s speed=0.00752x elapsed=0:02:35.07    \nframe=   72 fps=0.5 q=34.9 size=     256KiB time=00:00:01.16 bitrate=1797.9kbits/s speed=0.0075x elapsed=0:02:35.59    \nframe=   72 fps=0.5 q=34.9 size=     256KiB time=00:00:01.16 bitrate=1797.9kbits/s speed=0.00747x elapsed=0:02:36.11    \nframe=   72 fps=0.5 q=34.9 size=     256KiB time=00:00:01.16 bitrate=1797.9kbits/s speed=0.00745x elapsed=0:02:36.62    \nframe=   72 fps=0.5 q=34.9 size=     256KiB time=00:00:01.16 bitrate=1797.9kbits/s speed=0.00742x elapsed=0:02:37.17    \nframe=   72 fps=0.5 q=34.9 size=     256KiB time=00:00:01.16 bitrate=1797.9kbits/s speed=0.0074x elapsed=0:02:37.70    \nframe=   73 fps=0.5 q=37.4 size=     256KiB time=00:00:01.18 bitrate=1772.5kbits/s speed=0.00748x elapsed=0:02:38.21    \nframe=   73 fps=0.5 q=37.4 size=     256KiB time=00:00:01.18 bitrate=1772.5kbits/s speed=0.00745x elapsed=0:02:38.74    \nframe=   73 fps=0.5 q=37.4 size=     256KiB time=00:00:01.18 bitrate=1772.5kbits/s speed=0.00743x elapsed=0:02:39.25    \nframe=   74 fps=0.5 q=39.5 size=     256KiB time=00:00:01.20 bitrate=1747.9kbits/s speed=0.00751x elapsed=0:02:39.77    \nframe=   75 fps=0.5 q=39.4 size=     256KiB time=00:00:01.21 bitrate=1724.0kbits/s speed=0.00759x elapsed=0:02:40.30    \nframe=   75 fps=0.5 q=39.4 size=     256KiB time=00:00:01.21 bitrate=1724.0kbits/s speed=0.00756x elapsed=0:02:40.84    \nframe=   75 fps=0.5 q=39.4 size=     256KiB time=00:00:01.21 bitrate=1724.0kbits/s speed=0.00754x elapsed=0:02:41.37    \nframe=   75 fps=0.5 q=39.4 size=     256KiB time=00:00:01.21 bitrate=1724.0kbits/s speed=0.00752x elapsed=0:02:41.88    \nframe=   75 fps=0.5 q=39.4 size=     256KiB time=00:00:01.21 bitrate=1724.0kbits/s speed=0.00749x elapsed=0:02:42.41    \nframe=   76 fps=0.5 q=35.2 size=     256KiB time=00:00:01.23 bitrate=1700.7kbits/s speed=0.00757x elapsed=0:02:42.92    \nframe=   76 fps=0.5 q=35.2 size=     256KiB time=00:00:01.23 bitrate=1700.7kbits/s speed=0.00755x elapsed=0:02:43.44    \nframe=   76 fps=0.5 q=35.2 size=     256KiB time=00:00:01.23 bitrate=1700.7kbits/s speed=0.00752x elapsed=0:02:43.97    \nframe=   77 fps=0.5 q=37.5 size=     256KiB time=00:00:01.25 bitrate=1678.0kbits/s speed=0.0076x elapsed=0:02:44.50    \nframe=   77 fps=0.5 q=37.5 size=     256KiB time=00:00:01.25 bitrate=1678.0kbits/s speed=0.00757x elapsed=0:02:45.03    \nframe=   77 fps=0.5 q=37.5 size=     256KiB time=00:00:01.25 bitrate=1678.0kbits/s speed=0.00755x elapsed=0:02:45.62    \nframe=   77 fps=0.5 q=37.5 size=     256KiB time=00:00:01.25 bitrate=1678.0kbits/s speed=0.00752x elapsed=0:02:46.15    \nframe=   78 fps=0.5 q=39.4 size=     256KiB time=00:00:01.26 bitrate=1655.9kbits/s speed=0.0076x elapsed=0:02:46.71    \nframe=   78 fps=0.5 q=39.4 size=     256KiB time=00:00:01.26 bitrate=1655.9kbits/s speed=0.00757x elapsed=0:02:47.23    \nframe=   78 fps=0.5 q=39.4 size=     256KiB time=00:00:01.26 bitrate=1655.9kbits/s speed=0.00755x elapsed=0:02:47.74    \nframe=   78 fps=0.5 q=39.4 size=     256KiB time=00:00:01.26 bitrate=1655.9kbits/s speed=0.00753x elapsed=0:02:48.26    \nframe=   79 fps=0.5 q=39.5 size=     256KiB time=00:00:01.28 bitrate=1634.4kbits/s speed=0.0076x elapsed=0:02:48.82    \nframe=   79 fps=0.5 q=39.5 size=     256KiB time=00:00:01.28 bitrate=1634.4kbits/s speed=0.00758x elapsed=0:02:49.33    \nframe=   79 fps=0.5 q=39.5 size=     256KiB time=00:00:01.28 bitrate=1634.4kbits/s speed=0.00755x elapsed=0:02:49.87    \nframe=   79 fps=0.5 q=39.5 size=     256KiB time=00:00:01.28 bitrate=1634.4kbits/s speed=0.00753x elapsed=0:02:50.44    \nframe=   79 fps=0.5 q=39.5 size=     256KiB time=00:00:01.28 bitrate=1634.4kbits/s speed=0.00751x elapsed=0:02:50.96    \nframe=   79 fps=0.5 q=39.5 size=     256KiB time=00:00:01.28 bitrate=1634.4kbits/s speed=0.00748x elapsed=0:02:51.53    \nframe=   80 fps=0.5 q=34.8 size=     256KiB time=00:00:01.30 bitrate=1613.5kbits/s speed=0.00755x elapsed=0:02:52.14    \nframe=   80 fps=0.5 q=34.8 size=     256KiB time=00:00:01.30 bitrate=1613.5kbits/s speed=0.00753x elapsed=0:02:52.66    \nframe=   80 fps=0.5 q=34.8 size=     256KiB time=00:00:01.30 bitrate=1613.5kbits/s speed=0.00751x elapsed=0:02:53.19    \nframe=   81 fps=0.5 q=38.9 size=     256KiB time=00:00:01.31 bitrate=1593.0kbits/s speed=0.00758x elapsed=0:02:53.71    \nframe=   81 fps=0.5 q=38.9 size=     256KiB time=00:00:01.31 bitrate=1593.0kbits/s speed=0.00756x elapsed=0:02:54.24    \nframe=   81 fps=0.5 q=38.9 size=     256KiB time=00:00:01.31 bitrate=1593.0kbits/s speed=0.00753x elapsed=0:02:54.74    \nframe=   82 fps=0.5 q=40.1 size=     256KiB time=00:00:01.33 bitrate=1573.1kbits/s speed=0.0076x elapsed=0:02:55.35    \nframe=   82 fps=0.5 q=40.1 size=     256KiB time=00:00:01.33 bitrate=1573.1kbits/s speed=0.00758x elapsed=0:02:55.86    \nframe=   82 fps=0.5 q=40.1 size=     256KiB time=00:00:01.33 bitrate=1573.1kbits/s speed=0.00756x elapsed=0:02:56.40    \nframe=   82 fps=0.5 q=40.1 size=     256KiB time=00:00:01.33 bitrate=1573.1kbits/s speed=0.00754x elapsed=0:02:56.91    \nframe=   82 fps=0.5 q=40.1 size=     256KiB time=00:00:01.33 bitrate=1573.1kbits/s speed=0.00751x elapsed=0:02:57.44    \nframe=   82 fps=0.5 q=40.1 size=     256KiB time=00:00:01.33 bitrate=1573.1kbits/s speed=0.00749x elapsed=0:02:57.94    \nframe=   83 fps=0.5 q=40.1 size=     256KiB time=00:00:01.35 bitrate=1553.7kbits/s speed=0.00756x elapsed=0:02:58.48    \nframe=   83 fps=0.5 q=40.1 size=     256KiB time=00:00:01.35 bitrate=1553.7kbits/s speed=0.00754x elapsed=0:02:59.00    \nframe=   83 fps=0.5 q=40.1 size=     256KiB time=00:00:01.35 bitrate=1553.7kbits/s speed=0.00752x elapsed=0:02:59.54    \nframe=   84 fps=0.5 q=40.4 size=     256KiB time=00:00:01.36 bitrate=1534.8kbits/s speed=0.00759x elapsed=0:03:00.09    \nframe=   84 fps=0.5 q=40.4 size=     256KiB time=00:00:01.36 bitrate=1534.8kbits/s speed=0.00757x elapsed=0:03:00.61    \nframe=   84 fps=0.5 q=40.4 size=     256KiB time=00:00:01.36 bitrate=1534.8kbits/s speed=0.00754x elapsed=0:03:01.14    \nframe=   85 fps=0.5 q=35.0 size=     256KiB time=00:00:01.38 bitrate=1516.3kbits/s speed=0.00761x elapsed=0:03:01.68    \nframe=   85 fps=0.5 q=35.0 size=     256KiB time=00:00:01.38 bitrate=1516.3kbits/s speed=0.00759x elapsed=0:03:02.20    \nframe=   85 fps=0.5 q=35.0 size=     256KiB time=00:00:01.38 bitrate=1516.3kbits/s speed=0.00757x elapsed=0:03:02.71    \nframe=   86 fps=0.5 q=38.2 size=     256KiB time=00:00:01.40 bitrate=1498.2kbits/s speed=0.00764x elapsed=0:03:03.24    \nframe=   86 fps=0.5 q=38.2 size=     256KiB time=00:00:01.40 bitrate=1498.2kbits/s speed=0.00762x elapsed=0:03:03.75    \nframe=   86 fps=0.5 q=38.2 size=     256KiB time=00:00:01.40 bitrate=1498.2kbits/s speed=0.0076x elapsed=0:03:04.28    \nframe=   86 fps=0.5 q=38.2 size=     256KiB time=00:00:01.40 bitrate=1498.2kbits/s speed=0.00758x elapsed=0:03:04.79    \nframe=   86 fps=0.5 q=38.2 size=     256KiB time=00:00:01.40 bitrate=1498.2kbits/s speed=0.00755x elapsed=0:03:05.31    \nframe=   87 fps=0.5 q=40.3 size=     256KiB time=00:00:01.40 bitrate=1498.2kbits/s speed=0.00753x elapsed=0:03:05.82    \nframe=   87 fps=0.5 q=40.3 size=     256KiB time=00:00:01.41 bitrate=1480.6kbits/s speed=0.0076x elapsed=0:03:06.35    \nframe=   88 fps=0.5 q=40.5 size=     256KiB time=00:00:01.43 bitrate=1463.4kbits/s speed=0.00767x elapsed=0:03:06.87    \nframe=   88 fps=0.5 q=40.5 size=     256KiB time=00:00:01.43 bitrate=1463.4kbits/s speed=0.00765x elapsed=0:03:07.39    \nframe=   88 fps=0.5 q=40.5 size=     256KiB time=00:00:01.43 bitrate=1463.4kbits/s speed=0.00762x elapsed=0:03:08.01    \nframe=   90 fps=0.5 q=38.1 size=     256KiB time=00:00:01.46 bitrate=1430.1kbits/s speed=0.00778x elapsed=0:03:08.60    \nframe=   90 fps=0.5 q=38.1 size=     256KiB time=00:00:01.46 bitrate=1430.1kbits/s speed=0.00775x elapsed=0:03:09.17    \nframe=   91 fps=0.5 q=40.5 size=     256KiB time=00:00:01.48 bitrate=1414.0kbits/s speed=0.00782x elapsed=0:03:09.73    \nframe=   91 fps=0.5 q=40.5 size=     256KiB time=00:00:01.48 bitrate=1414.0kbits/s speed=0.0078x elapsed=0:03:10.28    \nframe=   91 fps=0.5 q=40.5 size=     256KiB time=00:00:01.48 bitrate=1414.0kbits/s speed=0.00777x elapsed=0:03:10.83    \nframe=   92 fps=0.5 q=40.6 size=     256KiB time=00:00:01.50 bitrate=1398.3kbits/s speed=0.00784x elapsed=0:03:11.41    \nframe=   92 fps=0.5 q=40.6 size=     256KiB time=00:00:01.50 bitrate=1398.3kbits/s speed=0.00781x elapsed=0:03:11.94    \nframe=   92 fps=0.5 q=40.6 size=     256KiB time=00:00:01.50 bitrate=1398.3kbits/s speed=0.00779x elapsed=0:03:12.47    \nframe=   93 fps=0.5 q=35.5 size=     256KiB time=00:00:01.51 bitrate=1383.0kbits/s speed=0.00786x elapsed=0:03:12.97    \nframe=   93 fps=0.5 q=35.5 size=     256KiB time=00:00:01.51 bitrate=1383.0kbits/s speed=0.00784x elapsed=0:03:13.50    \nframe=   94 fps=0.5 q=38.5 size=     256KiB time=00:00:01.53 bitrate=1367.9kbits/s speed=0.0079x elapsed=0:03:14.04    \nframe=   95 fps=0.5 q=41.3 size=     256KiB time=00:00:01.55 bitrate=1353.2kbits/s speed=0.00797x elapsed=0:03:14.59    \nframe=   95 fps=0.5 q=41.3 size=     256KiB time=00:00:01.55 bitrate=1353.2kbits/s speed=0.00794x elapsed=0:03:15.18    \nframe=   95 fps=0.5 q=41.3 size=     256KiB time=00:00:01.55 bitrate=1353.2kbits/s speed=0.00792x elapsed=0:03:15.71    \nframe=   95 fps=0.5 q=41.3 size=     256KiB time=00:00:01.55 bitrate=1353.2kbits/s speed=0.0079x elapsed=0:03:16.32    \nframe=   95 fps=0.5 q=41.3 size=     256KiB time=00:00:01.55 bitrate=1353.2kbits/s speed=0.00787x elapsed=0:03:16.91    \nframe=   95 fps=0.5 q=41.3 size=     256KiB time=00:00:01.55 bitrate=1353.2kbits/s speed=0.00785x elapsed=0:03:17.43    \nframe=   96 fps=0.5 q=35.7 size=     256KiB time=00:00:01.56 bitrate=1338.8kbits/s speed=0.00791x elapsed=0:03:17.95    \nframe=   97 fps=0.5 q=39.8 size=     256KiB time=00:00:01.58 bitrate=1324.7kbits/s speed=0.00798x elapsed=0:03:18.51    \nframe=   97 fps=0.5 q=39.8 size=     256KiB time=00:00:01.58 bitrate=1324.7kbits/s speed=0.00795x elapsed=0:03:19.12    \nframe=   97 fps=0.5 q=39.8 size=     256KiB time=00:00:01.58 bitrate=1324.7kbits/s speed=0.00793x elapsed=0:03:19.66    \nframe=   98 fps=0.5 q=41.0 size=     256KiB time=00:00:01.60 bitrate=1310.9kbits/s speed=0.00799x elapsed=0:03:20.20    \nframe=   98 fps=0.5 q=41.0 size=     256KiB time=00:00:01.60 bitrate=1310.9kbits/s speed=0.00797x elapsed=0:03:20.77    \nframe=   98 fps=0.5 q=41.0 size=     256KiB time=00:00:01.60 bitrate=1310.9kbits/s speed=0.00795x elapsed=0:03:21.30    \nframe=   99 fps=0.5 q=41.0 size=     256KiB time=00:00:01.61 bitrate=1297.4kbits/s speed=0.00801x elapsed=0:03:21.85    \nframe=  100 fps=0.5 q=41.4 size=     256KiB time=00:00:01.63 bitrate=1284.2kbits/s speed=0.00807x elapsed=0:03:22.36    \nframe=  100 fps=0.5 q=41.4 size=     256KiB time=00:00:01.63 bitrate=1284.2kbits/s speed=0.00805x elapsed=0:03:22.90    \nframe=  100 fps=0.5 q=41.4 size=     256KiB time=00:00:01.63 bitrate=1284.2kbits/s speed=0.00803x elapsed=0:03:23.42    \nframe=  100 fps=0.5 q=41.4 size=     256KiB time=00:00:01.63 bitrate=1284.2kbits/s speed=0.008x elapsed=0:03:24.09    \nframe=  101 fps=0.5 q=36.1 size=     256KiB time=00:00:01.65 bitrate=1271.2kbits/s speed=0.00806x elapsed=0:03:24.65    \nframe=  101 fps=0.5 q=36.1 size=     256KiB time=00:00:01.65 bitrate=1271.2kbits/s speed=0.00804x elapsed=0:03:25.18    \nframe=  101 fps=0.5 q=36.1 size=     256KiB time=00:00:01.65 bitrate=1271.2kbits/s speed=0.00802x elapsed=0:03:25.75    \nframe=  102 fps=0.5 q=38.6 size=     256KiB time=00:00:01.66 bitrate=1258.5kbits/s speed=0.00808x elapsed=0:03:26.30    \nframe=  102 fps=0.5 q=38.6 size=     256KiB time=00:00:01.66 bitrate=1258.5kbits/s speed=0.00806x elapsed=0:03:26.88    \nframe=  103 fps=0.5 q=41.4 size=     256KiB time=00:00:01.68 bitrate=1246.0kbits/s speed=0.00812x elapsed=0:03:27.40    \nframe=  104 fps=0.5 q=36.3 size=     256KiB time=00:00:01.70 bitrate=1233.8kbits/s speed=0.00818x elapsed=0:03:27.93    \nframe=  104 fps=0.5 q=36.3 size=     256KiB time=00:00:01.70 bitrate=1233.8kbits/s speed=0.00815x elapsed=0:03:28.50    \nframe=  105 fps=0.5 q=38.1 size=     256KiB time=00:00:01.71 bitrate=1221.8kbits/s speed=0.00821x elapsed=0:03:29.02    \nframe=  105 fps=0.5 q=38.1 size=     256KiB time=00:00:01.71 bitrate=1221.8kbits/s speed=0.00819x elapsed=0:03:29.54    \nframe=  105 fps=0.5 q=38.1 size=     256KiB time=00:00:01.71 bitrate=1221.8kbits/s speed=0.00817x elapsed=0:03:30.07    \nframe=  105 fps=0.5 q=38.1 size=     256KiB time=00:00:01.71 bitrate=1221.8kbits/s speed=0.00815x elapsed=0:03:30.60    \nframe=  106 fps=0.5 q=41.7 size=     256KiB time=00:00:01.73 bitrate=1210.1kbits/s speed=0.00821x elapsed=0:03:31.16    \nframe=  106 fps=0.5 q=41.7 size=     256KiB time=00:00:01.73 bitrate=1210.1kbits/s speed=0.00819x elapsed=0:03:31.68    \nframe=  107 fps=0.5 q=36.2 size=     256KiB time=00:00:01.75 bitrate=1198.6kbits/s speed=0.00825x elapsed=0:03:32.23    \nframe=  107 fps=0.5 q=36.2 size=     256KiB time=00:00:01.75 bitrate=1198.6kbits/s speed=0.00822x elapsed=0:03:32.77    \nframe=  108 fps=0.5 q=39.3 size=     256KiB time=00:00:01.76 bitrate=1187.3kbits/s speed=0.00828x elapsed=0:03:33.29    \nframe=  109 fps=0.5 q=41.8 size=     256KiB time=00:00:01.78 bitrate=1176.2kbits/s speed=0.00834x elapsed=0:03:33.83    \nframe=  109 fps=0.5 q=41.8 size=     256KiB time=00:00:01.78 bitrate=1176.2kbits/s speed=0.00832x elapsed=0:03:34.38    \nframe=  109 fps=0.5 q=41.8 size=     256KiB time=00:00:01.78 bitrate=1176.2kbits/s speed=0.0083x elapsed=0:03:34.96    \nframe=  109 fps=0.5 q=41.8 size=     256KiB time=00:00:01.78 bitrate=1176.2kbits/s speed=0.00827x elapsed=0:03:35.50    \nframe=  110 fps=0.5 q=42.1 size=     256KiB time=00:00:01.80 bitrate=1165.3kbits/s speed=0.00833x elapsed=0:03:36.09    \nframe=  110 fps=0.5 q=42.1 size=     256KiB time=00:00:01.80 bitrate=1165.3kbits/s speed=0.00831x elapsed=0:03:36.61    \nframe=  111 fps=0.5 q=41.8 size=     256KiB time=00:00:01.81 bitrate=1154.6kbits/s speed=0.00836x elapsed=0:03:37.23    \nframe=  111 fps=0.5 q=41.8 size=     256KiB time=00:00:01.81 bitrate=1154.6kbits/s speed=0.00834x elapsed=0:03:37.94    \nframe=  111 fps=0.5 q=41.8 size=     256KiB time=00:00:01.81 bitrate=1154.6kbits/s speed=0.00831x elapsed=0:03:38.61    \nframe=  112 fps=0.5 q=36.4 size=     256KiB time=00:00:01.83 bitrate=1144.1kbits/s speed=0.00836x elapsed=0:03:39.17    \nframe=  113 fps=0.5 q=39.6 size=     256KiB time=00:00:01.85 bitrate=1133.8kbits/s speed=0.00842x elapsed=0:03:39.71    \nframe=  115 fps=0.5 q=42.1 size=     256KiB time=00:00:01.86 bitrate=1123.7kbits/s speed=0.00847x elapsed=0:03:40.33    \nframe=  115 fps=0.5 q=42.1 size=     256KiB time=00:00:01.88 bitrate=1113.7kbits/s speed=0.00852x elapsed=0:03:40.94    \nframe=  117 fps=0.5 q=40.5 size=     256KiB time=00:00:01.91 bitrate=1094.3kbits/s speed=0.00865x elapsed=0:03:41.50    \nframe=  118 fps=0.5 q=42.0 size=     256KiB time=00:00:01.93 bitrate=1084.9kbits/s speed=0.00871x elapsed=0:03:42.07    \nframe=  118 fps=0.5 q=42.0 size=     256KiB time=00:00:01.93 bitrate=1084.9kbits/s speed=0.00868x elapsed=0:03:42.61    \nframe=  118 fps=0.5 q=42.0 size=     256KiB time=00:00:01.93 bitrate=1084.9kbits/s speed=0.00866x elapsed=0:03:43.15    \nframe=  118 fps=0.5 q=42.0 size=     256KiB time=00:00:01.93 bitrate=1084.9kbits/s speed=0.00864x elapsed=0:03:43.71    \nframe=  118 fps=0.5 q=42.0 size=     256KiB time=00:00:01.93 bitrate=1084.9kbits/s speed=0.00862x elapsed=0:03:44.29    \nframe=  118 fps=0.5 q=42.0 size=     256KiB time=00:00:01.93 bitrate=1084.9kbits/s speed=0.0086x elapsed=0:03:44.85    \nframe=  118 fps=0.5 q=42.0 size=     256KiB time=00:00:01.93 bitrate=1084.9kbits/s speed=0.00858x elapsed=0:03:45.40    \nframe=  118 fps=0.5 q=42.0 size=     256KiB time=00:00:01.93 bitrate=1084.9kbits/s speed=0.00855x elapsed=0:03:45.99    \nframe=  120 fps=0.5 q=42.3 size=     512KiB time=00:00:01.96 bitrate=2132.9kbits/s speed=0.00868x elapsed=0:03:46.61    \nframe=  120 fps=0.5 q=42.3 size=     512KiB time=00:00:01.96 bitrate=2132.9kbits/s speed=0.00866x elapsed=0:03:47.20    \nframe=  120 fps=0.5 q=42.3 size=     512KiB time=00:00:01.96 bitrate=2132.9kbits/s speed=0.00863x elapsed=0:03:47.88    \nframe=  120 fps=0.5 q=42.3 size=     512KiB time=00:00:01.96 bitrate=2132.9kbits/s speed=0.0086x elapsed=0:03:48.63    \nframe=  120 fps=0.5 q=42.3 size=     512KiB time=00:00:01.96 bitrate=2132.9kbits/s speed=0.00858x elapsed=0:03:49.20    \nframe=  120 fps=0.5 q=42.3 size=     512KiB time=00:00:01.96 bitrate=2132.9kbits/s speed=0.00856x elapsed=0:03:49.78    \nframe=  120 fps=0.5 q=42.3 size=     512KiB time=00:00:01.96 bitrate=2132.9kbits/s speed=0.00854x elapsed=0:03:50.32    \nframe=  121 fps=0.5 q=36.1 size=     512KiB time=00:00:01.98 bitrate=2115.0kbits/s speed=0.00859x elapsed=0:03:50.87    \nframe=  121 fps=0.5 q=36.1 size=     512KiB time=00:00:01.98 bitrate=2115.0kbits/s speed=0.00857x elapsed=0:03:51.43    \nframe=  121 fps=0.5 q=36.1 size=     512KiB time=00:00:01.98 bitrate=2115.0kbits/s speed=0.00855x elapsed=0:03:51.94    \nframe=  122 fps=0.5 q=39.5 size=     512KiB time=00:00:02.00 bitrate=2097.3kbits/s speed=0.0086x elapsed=0:03:52.46    \nframe=  123 fps=0.5 q=42.1 size=     512KiB time=00:00:02.01 bitrate=2080.0kbits/s speed=0.00865x elapsed=0:03:53.01    \nframe=  124 fps=0.5 q=42.3 size=     512KiB time=00:00:02.03 bitrate=2062.9kbits/s speed=0.00871x elapsed=0:03:53.55    \nframe=  124 fps=0.5 q=42.3 size=     512KiB time=00:00:02.03 bitrate=2062.9kbits/s speed=0.00869x elapsed=0:03:54.06    \nframe=  125 fps=0.5 q=36.0 size=     512KiB time=00:00:02.05 bitrate=2046.2kbits/s speed=0.00874x elapsed=0:03:54.58    \nframe=  126 fps=0.5 q=39.3 size=     512KiB time=00:00:02.06 bitrate=2029.7kbits/s speed=0.00879x elapsed=0:03:55.08    \nframe=  126 fps=0.5 q=39.3 size=     512KiB time=00:00:02.06 bitrate=2029.7kbits/s speed=0.00877x elapsed=0:03:55.60    \nframe=  127 fps=0.5 q=42.2 size=     512KiB time=00:00:02.08 bitrate=2013.4kbits/s speed=0.00882x elapsed=0:03:56.18    \nframe=  128 fps=0.5 q=42.2 size=     512KiB time=00:00:02.10 bitrate=1997.5kbits/s speed=0.00887x elapsed=0:03:56.70    \nframe=  129 fps=0.5 q=36.2 size=     512KiB time=00:00:02.11 bitrate=1981.7kbits/s speed=0.00892x elapsed=0:03:57.21    \nframe=  129 fps=0.5 q=36.2 size=     512KiB time=00:00:02.11 bitrate=1981.7kbits/s speed=0.0089x elapsed=0:03:57.76    \nframe=  130 fps=0.5 q=40.8 size=     512KiB time=00:00:02.11 bitrate=1981.7kbits/s speed=0.00888x elapsed=0:03:58.30    \nframe=  130 fps=0.5 q=40.8 size=     512KiB time=00:00:02.13 bitrate=1966.2kbits/s speed=0.00893x elapsed=0:03:58.91    \nframe=  131 fps=0.5 q=42.1 size=     512KiB time=00:00:02.15 bitrate=1951.0kbits/s speed=0.00898x elapsed=0:03:59.44    \nframe=  132 fps=0.6 q=35.8 size=     512KiB time=00:00:02.16 bitrate=1936.0kbits/s speed=0.00903x elapsed=0:03:59.99    \nframe=  132 fps=0.5 q=35.8 size=     512KiB time=00:00:02.16 bitrate=1936.0kbits/s speed=0.00901x elapsed=0:04:00.56    \nframe=  133 fps=0.6 q=39.5 size=     512KiB time=00:00:02.18 bitrate=1921.2kbits/s speed=0.00905x elapsed=0:04:01.14    \nframe=  133 fps=0.6 q=39.5 size=     512KiB time=00:00:02.18 bitrate=1921.2kbits/s speed=0.00903x elapsed=0:04:01.69    \nframe=  135 fps=0.6 q=42.3 size=     512KiB time=00:00:02.21 bitrate=1892.3kbits/s speed=0.00915x elapsed=0:04:02.20    \nframe=  136 fps=0.6 q=35.8 size=     512KiB time=00:00:02.23 bitrate=1878.2kbits/s speed=0.0092x elapsed=0:04:02.73    \nframe=  136 fps=0.6 q=35.8 size=     512KiB time=00:00:02.23 bitrate=1878.2kbits/s speed=0.00918x elapsed=0:04:03.28    \nframe=  137 fps=0.6 q=40.7 size=     512KiB time=00:00:02.25 bitrate=1864.3kbits/s speed=0.00923x elapsed=0:04:03.82    \nframe=  137 fps=0.6 q=40.7 size=     512KiB time=00:00:02.25 bitrate=1864.3kbits/s speed=0.00921x elapsed=0:04:04.34    \nframe=  138 fps=0.6 q=42.0 size=     512KiB time=00:00:02.26 bitrate=1850.6kbits/s speed=0.00926x elapsed=0:04:04.85    \nframe=  139 fps=0.6 q=42.0 size=     512KiB time=00:00:02.28 bitrate=1837.1kbits/s speed=0.00931x elapsed=0:04:05.37    \nframe=  139 fps=0.6 q=42.0 size=     512KiB time=00:00:02.28 bitrate=1837.1kbits/s speed=0.00929x elapsed=0:04:05.90    \nframe=  139 fps=0.6 q=42.0 size=     512KiB time=00:00:02.28 bitrate=1837.1kbits/s speed=0.00926x elapsed=0:04:06.46    \nframe=  141 fps=0.6 q=36.0 size=     512KiB time=00:00:02.31 bitrate=1810.6kbits/s speed=0.00938x elapsed=0:04:07.05    \nframe=  141 fps=0.6 q=36.0 size=     512KiB time=00:00:02.31 bitrate=1810.6kbits/s speed=0.00936x elapsed=0:04:07.62    \nframe=  142 fps=0.6 q=40.4 size=     512KiB time=00:00:02.33 bitrate=1797.7kbits/s speed=0.0094x elapsed=0:04:08.14    \nframe=  143 fps=0.6 q=41.8 size=     512KiB time=00:00:02.35 bitrate=1785.0kbits/s speed=0.00945x elapsed=0:04:08.66    \nframe=  144 fps=0.6 q=41.9 size=     512KiB time=00:00:02.36 bitrate=1772.4kbits/s speed=0.0095x elapsed=0:04:09.19    \nframe=  145 fps=0.6 q=42.0 size=     512KiB time=00:00:02.38 bitrate=1760.0kbits/s speed=0.00954x elapsed=0:04:09.77    \nframe=  145 fps=0.6 q=42.0 size=     512KiB time=00:00:02.38 bitrate=1760.0kbits/s speed=0.00952x elapsed=0:04:10.29    \nframe=  145 fps=0.6 q=42.0 size=     512KiB time=00:00:02.38 bitrate=1760.0kbits/s speed=0.0095x elapsed=0:04:10.81    \nframe=  146 fps=0.6 q=35.8 size=     512KiB time=00:00:02.40 bitrate=1747.8kbits/s speed=0.00955x elapsed=0:04:11.32    \nframe=  146 fps=0.6 q=35.8 size=     512KiB time=00:00:02.40 bitrate=1747.8kbits/s speed=0.00953x elapsed=0:04:11.85    \nframe=  146 fps=0.6 q=35.8 size=     512KiB time=00:00:02.40 bitrate=1747.8kbits/s speed=0.00951x elapsed=0:04:12.37    \nframe=  148 fps=0.6 q=42.1 size=     512KiB time=00:00:02.43 bitrate=1723.8kbits/s speed=0.00962x elapsed=0:04:12.91    \nframe=  149 fps=0.6 q=35.8 size=     512KiB time=00:00:02.45 bitrate=1712.1kbits/s speed=0.00967x elapsed=0:04:13.42    \nframe=  150 fps=0.6 q=38.9 size=     512KiB time=00:00:02.46 bitrate=1700.5kbits/s speed=0.00971x elapsed=0:04:13.93    \nframe=  150 fps=0.6 q=38.9 size=     512KiB time=00:00:02.46 bitrate=1700.5kbits/s speed=0.00969x elapsed=0:04:14.45    \nframe=  152 fps=0.6 q=42.1 size=     512KiB time=00:00:02.50 bitrate=1677.9kbits/s speed=0.0098x elapsed=0:04:14.97    \nframe=  152 fps=0.6 q=42.1 size=     512KiB time=00:00:02.50 bitrate=1677.9kbits/s speed=0.00978x elapsed=0:04:15.50    \nframe=  152 fps=0.6 q=42.1 size=     512KiB time=00:00:02.50 bitrate=1677.9kbits/s speed=0.00976x elapsed=0:04:16.05    \nframe=  153 fps=0.6 q=36.1 size=     512KiB time=00:00:02.51 bitrate=1666.8kbits/s speed=0.00981x elapsed=0:04:16.59    \nframe=  155 fps=0.6 q=41.5 size=     512KiB time=00:00:02.55 bitrate=1645.0kbits/s speed=0.00992x elapsed=0:04:17.12    \nframe=  156 fps=0.6 q=41.9 size=     512KiB time=00:00:02.56 bitrate=1634.3kbits/s speed=0.00996x elapsed=0:04:17.64    \nframe=  156 fps=0.6 q=41.9 size=     512KiB time=00:00:02.56 bitrate=1634.3kbits/s speed=0.00994x elapsed=0:04:18.17    \nframe=  156 fps=0.6 q=41.9 size=     512KiB time=00:00:02.56 bitrate=1634.3kbits/s speed=0.00992x elapsed=0:04:18.69    \nframe=  156 fps=0.6 q=41.9 size=     512KiB time=00:00:02.56 bitrate=1634.3kbits/s speed=0.0099x elapsed=0:04:19.22    \nframe=  156 fps=0.6 q=41.9 size=     512KiB time=00:00:02.56 bitrate=1634.3kbits/s speed=0.00988x elapsed=0:04:19.75    \nframe=  156 fps=0.6 q=41.9 size=     512KiB time=00:00:02.56 bitrate=1634.3kbits/s speed=0.00986x elapsed=0:04:20.26    \nframe=  157 fps=0.6 q=36.0 size=     512KiB time=00:00:02.58 bitrate=1623.7kbits/s speed=0.0099x elapsed=0:04:20.83    \nframe=  158 fps=0.6 q=38.9 size=     512KiB time=00:00:02.60 bitrate=1613.3kbits/s speed=0.00995x elapsed=0:04:21.36    \nframe=  159 fps=0.6 q=41.6 size=     512KiB time=00:00:02.61 bitrate=1603.1kbits/s speed=0.00999x elapsed=0:04:21.90    \nframe=  161 fps=0.6 q=35.5 size=     512KiB time=00:00:02.65 bitrate=1582.9kbits/s speed=0.0101x elapsed=0:04:22.43    \nframe=  162 fps=0.6 q=38.9 size=     512KiB time=00:00:02.66 bitrate=1573.0kbits/s speed=0.0101x elapsed=0:04:22.96    \nframe=  162 fps=0.6 q=38.9 size=     512KiB time=00:00:02.66 bitrate=1573.0kbits/s speed=0.0101x elapsed=0:04:23.50    \nframe=  162 fps=0.6 q=38.9 size=     512KiB time=00:00:02.66 bitrate=1573.0kbits/s speed=0.0101x elapsed=0:04:24.02    \nframe=  164 fps=0.6 q=41.6 size=     512KiB time=00:00:02.70 bitrate=1553.6kbits/s speed=0.0102x elapsed=0:04:24.52    \nframe=  165 fps=0.6 q=35.8 size=     512KiB time=00:00:02.71 bitrate=1544.0kbits/s speed=0.0102x elapsed=0:04:25.05    \nframe=  166 fps=0.6 q=39.1 size=     512KiB time=00:00:02.73 bitrate=1534.6kbits/s speed=0.0103x elapsed=0:04:25.57    \nframe=  167 fps=0.6 q=41.5 size=     512KiB time=00:00:02.75 bitrate=1525.3kbits/s speed=0.0103x elapsed=0:04:26.10    \nframe=  167 fps=0.6 q=41.5 size=     512KiB time=00:00:02.75 bitrate=1525.3kbits/s speed=0.0103x elapsed=0:04:26.65    \nframe=  170 fps=0.6 q=38.9 size=     512KiB time=00:00:02.80 bitrate=1498.1kbits/s speed=0.0105x elapsed=0:04:27.16    \nframe=  170 fps=0.6 q=38.9 size=     512KiB time=00:00:02.80 bitrate=1498.1kbits/s speed=0.0105x elapsed=0:04:27.68    \nframe=  171 fps=0.6 q=41.4 size=     512KiB time=00:00:02.81 bitrate=1489.2kbits/s speed=0.0105x elapsed=0:04:28.20    \nframe=  172 fps=0.6 q=41.5 size=     512KiB time=00:00:02.83 bitrate=1480.5kbits/s speed=0.0105x elapsed=0:04:28.77    \nframe=  173 fps=0.6 q=36.4 size=     512KiB time=00:00:02.85 bitrate=1471.8kbits/s speed=0.0106x elapsed=0:04:29.34    \nframe=  175 fps=0.6 q=41.4 size=     512KiB time=00:00:02.88 bitrate=1454.8kbits/s speed=0.0107x elapsed=0:04:29.89    \nframe=  176 fps=0.7 q=41.2 size=     512KiB time=00:00:02.90 bitrate=1446.4kbits/s speed=0.0107x elapsed=0:04:30.40    \nframe=  177 fps=0.7 q=36.5 size=     512KiB time=00:00:02.91 bitrate=1438.2kbits/s speed=0.0108x elapsed=0:04:30.91    \nframe=  177 fps=0.7 q=36.5 size=     512KiB time=00:00:02.91 bitrate=1438.2kbits/s speed=0.0107x elapsed=0:04:31.44    \nframe=  178 fps=0.7 q=39.1 size=     512KiB time=00:00:02.93 bitrate=1430.0kbits/s speed=0.0108x elapsed=0:04:31.98    \nframe=  178 fps=0.7 q=39.1 size=     512KiB time=00:00:02.93 bitrate=1430.0kbits/s speed=0.0108x elapsed=0:04:32.51    \nframe=  179 fps=0.7 q=41.3 size=     512KiB time=00:00:02.95 bitrate=1421.9kbits/s speed=0.0108x elapsed=0:04:33.05    \nframe=  180 fps=0.7 q=41.4 size=     512KiB time=00:00:02.96 bitrate=1413.9kbits/s speed=0.0108x elapsed=0:04:33.57    \nframe=  180 fps=0.7 q=41.4 size=     512KiB time=00:00:02.96 bitrate=1413.9kbits/s speed=0.0108x elapsed=0:04:34.10    \nframe=  181 fps=0.7 q=36.9 size=     512KiB time=00:00:02.98 bitrate=1406.0kbits/s speed=0.0109x elapsed=0:04:34.65    \nframe=  181 fps=0.7 q=36.9 size=     512KiB time=00:00:02.98 bitrate=1406.0kbits/s speed=0.0108x elapsed=0:04:35.18    \nframe=  182 fps=0.7 q=39.3 size=     512KiB time=00:00:03.00 bitrate=1398.2kbits/s speed=0.0109x elapsed=0:04:35.70    \nframe=  182 fps=0.7 q=39.3 size=     512KiB time=00:00:03.00 bitrate=1398.2kbits/s speed=0.0109x elapsed=0:04:36.25    \nframe=  183 fps=0.7 q=41.3 size=     512KiB time=00:00:03.01 bitrate=1390.5kbits/s speed=0.0109x elapsed=0:04:36.78    \nframe=  184 fps=0.7 q=41.4 size=     512KiB time=00:00:03.03 bitrate=1382.9kbits/s speed=0.0109x elapsed=0:04:37.38    \nframe=  185 fps=0.7 q=36.0 size=     512KiB time=00:00:03.05 bitrate=1375.3kbits/s speed=0.011x elapsed=0:04:37.94    \nframe=  185 fps=0.7 q=36.0 size=     512KiB time=00:00:03.05 bitrate=1375.3kbits/s speed=0.011x elapsed=0:04:38.46    \nframe=  185 fps=0.7 q=36.0 size=     512KiB time=00:00:03.05 bitrate=1375.3kbits/s speed=0.0109x elapsed=0:04:38.99    \nframe=  186 fps=0.7 q=39.1 size=     768KiB time=00:00:03.06 bitrate=2051.7kbits/s speed=0.011x elapsed=0:04:39.52    \nframe=  187 fps=0.7 q=41.3 size=     768KiB time=00:00:03.08 bitrate=2040.6kbits/s speed=0.011x elapsed=0:04:40.05    \nframe=  187 fps=0.7 q=41.3 size=     768KiB time=00:00:03.08 bitrate=2040.6kbits/s speed=0.011x elapsed=0:04:40.60    \nframe=  188 fps=0.7 q=41.2 size=     768KiB time=00:00:03.10 bitrate=2029.6kbits/s speed=0.011x elapsed=0:04:41.13    \nframe=  188 fps=0.7 q=41.2 size=     768KiB time=00:00:03.10 bitrate=2029.6kbits/s speed=0.011x elapsed=0:04:41.68    \nframe=  190 fps=0.7 q=39.4 size=     768KiB time=00:00:03.13 bitrate=2008.0kbits/s speed=0.0111x elapsed=0:04:42.22    \nframe=  190 fps=0.7 q=39.4 size=     768KiB time=00:00:03.13 bitrate=2008.0kbits/s speed=0.0111x elapsed=0:04:42.78    \nframe=  190 fps=0.7 q=39.4 size=     768KiB time=00:00:03.13 bitrate=2008.0kbits/s speed=0.0111x elapsed=0:04:43.32    \nframe=  192 fps=0.7 q=41.5 size=     768KiB time=00:00:03.16 bitrate=1986.9kbits/s speed=0.0112x elapsed=0:04:43.85    \nframe=  193 fps=0.7 q=36.0 size=     768KiB time=00:00:03.18 bitrate=1976.5kbits/s speed=0.0112x elapsed=0:04:44.42    \nframe=  194 fps=0.7 q=40.0 size=     768KiB time=00:00:03.20 bitrate=1966.2kbits/s speed=0.0112x elapsed=0:04:44.96    \nframe=  194 fps=0.7 q=40.0 size=     768KiB time=00:00:03.20 bitrate=1966.2kbits/s speed=0.0112x elapsed=0:04:45.48    \nframe=  195 fps=0.7 q=41.2 size=     768KiB time=00:00:03.21 bitrate=1956.0kbits/s speed=0.0112x elapsed=0:04:46.02    \nframe=  195 fps=0.7 q=41.2 size=     768KiB time=00:00:03.21 bitrate=1956.0kbits/s speed=0.0112x elapsed=0:04:46.56    \nframe=  196 fps=0.7 q=41.2 size=     768KiB time=00:00:03.23 bitrate=1945.9kbits/s speed=0.0113x elapsed=0:04:47.09    \nframe=  196 fps=0.7 q=41.2 size=     768KiB time=00:00:03.23 bitrate=1945.9kbits/s speed=0.0112x elapsed=0:04:47.62    \nframe=  197 fps=0.7 q=41.3 size=     768KiB time=00:00:03.25 bitrate=1935.9kbits/s speed=0.0113x elapsed=0:04:48.13    \nframe=  197 fps=0.7 q=41.3 size=     768KiB time=00:00:03.25 bitrate=1935.9kbits/s speed=0.0113x elapsed=0:04:48.66    \nframe=  198 fps=0.7 q=36.7 size=     768KiB time=00:00:03.26 bitrate=1926.1kbits/s speed=0.0113x elapsed=0:04:49.18    \nframe=  198 fps=0.7 q=36.7 size=     768KiB time=00:00:03.26 bitrate=1926.1kbits/s speed=0.0113x elapsed=0:04:49.70    \nframe=  198 fps=0.7 q=36.7 size=     768KiB time=00:00:03.26 bitrate=1926.1kbits/s speed=0.0113x elapsed=0:04:50.22    \nframe=  199 fps=0.7 q=39.1 size=     768KiB time=00:00:03.28 bitrate=1916.3kbits/s speed=0.0113x elapsed=0:04:50.74    \nframe=  199 fps=0.7 q=39.1 size=     768KiB time=00:00:03.28 bitrate=1916.3kbits/s speed=0.0113x elapsed=0:04:51.27    \nframe=  200 fps=0.7 q=41.4 size=     768KiB time=00:00:03.30 bitrate=1906.6kbits/s speed=0.0113x elapsed=0:04:51.80    \nframe=  201 fps=0.7 q=41.4 size=     768KiB time=00:00:03.31 bitrate=1897.0kbits/s speed=0.0113x elapsed=0:04:52.32    \nframe=  201 fps=0.7 q=41.4 size=     768KiB time=00:00:03.31 bitrate=1897.0kbits/s speed=0.0113x elapsed=0:04:52.84    \nframe=  202 fps=0.7 q=36.6 size=     768KiB time=00:00:03.33 bitrate=1887.5kbits/s speed=0.0114x elapsed=0:04:53.36    \nframe=  203 fps=0.7 q=39.7 size=     768KiB time=00:00:03.35 bitrate=1878.2kbits/s speed=0.0114x elapsed=0:04:53.88    \nframe=  203 fps=0.7 q=39.7 size=     768KiB time=00:00:03.35 bitrate=1878.2kbits/s speed=0.0114x elapsed=0:04:54.40    \nframe=  204 fps=0.7 q=41.4 size=     768KiB time=00:00:03.36 bitrate=1868.9kbits/s speed=0.0114x elapsed=0:04:54.92    \nframe=  204 fps=0.7 q=41.4 size=     768KiB time=00:00:03.36 bitrate=1868.9kbits/s speed=0.0114x elapsed=0:04:55.46    \nframe=  205 fps=0.7 q=36.9 size=     768KiB time=00:00:03.38 bitrate=1859.6kbits/s speed=0.0114x elapsed=0:04:56.00    \nframe=  205 fps=0.7 q=36.9 size=     768KiB time=00:00:03.38 bitrate=1859.6kbits/s speed=0.0114x elapsed=0:04:56.53    \nframe=  205 fps=0.7 q=36.9 size=     768KiB time=00:00:03.38 bitrate=1859.6kbits/s speed=0.0114x elapsed=0:04:57.04    \nframe=  206 fps=0.7 q=40.4 size=     768KiB time=00:00:03.40 bitrate=1850.5kbits/s speed=0.0114x elapsed=0:04:57.56    \nframe=  206 fps=0.7 q=40.4 size=     768KiB time=00:00:03.40 bitrate=1850.5kbits/s speed=0.0114x elapsed=0:04:58.11    \nframe=  208 fps=0.7 q=42.0 size=     768KiB time=00:00:03.43 bitrate=1832.6kbits/s speed=0.0115x elapsed=0:04:58.63    \nframe=  208 fps=0.7 q=42.0 size=     768KiB time=00:00:03.43 bitrate=1832.6kbits/s speed=0.0115x elapsed=0:04:59.19    \nframe=  208 fps=0.7 q=42.0 size=     768KiB time=00:00:03.43 bitrate=1832.6kbits/s speed=0.0115x elapsed=0:04:59.71    \nframe=  209 fps=0.7 q=37.3 size=     768KiB time=00:00:03.45 bitrate=1823.7kbits/s speed=0.0115x elapsed=0:05:00.24    \nframe=  209 fps=0.7 q=37.3 size=     768KiB time=00:00:03.45 bitrate=1823.7kbits/s speed=0.0115x elapsed=0:05:00.77    \nframe=  209 fps=0.7 q=37.3 size=     768KiB time=00:00:03.45 bitrate=1823.7kbits/s speed=0.0114x elapsed=0:05:01.31    \nframe=  209 fps=0.7 q=37.3 size=     768KiB time=00:00:03.45 bitrate=1823.7kbits/s speed=0.0114x elapsed=0:05:01.82    \nframe=  210 fps=0.7 q=41.1 size=     768KiB time=00:00:03.46 bitrate=1814.9kbits/s speed=0.0115x elapsed=0:05:02.37    \nframe=  210 fps=0.7 q=41.1 size=     768KiB time=00:00:03.46 bitrate=1814.9kbits/s speed=0.0114x elapsed=0:05:02.89    \nframe=  211 fps=0.7 q=42.5 size=     768KiB time=00:00:03.48 bitrate=1806.3kbits/s speed=0.0115x elapsed=0:05:03.42    \nframe=  211 fps=0.7 q=42.5 size=     768KiB time=00:00:03.48 bitrate=1806.3kbits/s speed=0.0115x elapsed=0:05:03.95    \nframe=  212 fps=0.7 q=43.2 size=     768KiB time=00:00:03.50 bitrate=1797.7kbits/s speed=0.0115x elapsed=0:05:04.47    \nframe=  212 fps=0.7 q=43.2 size=     768KiB time=00:00:03.50 bitrate=1797.7kbits/s speed=0.0115x elapsed=0:05:04.99    \nframe=  212 fps=0.7 q=43.2 size=     768KiB time=00:00:03.50 bitrate=1797.7kbits/s speed=0.0115x elapsed=0:05:05.51    \nframe=  212 fps=0.7 q=43.2 size=     768KiB time=00:00:03.50 bitrate=1797.7kbits/s speed=0.0114x elapsed=0:05:06.02    \nframe=  212 fps=0.7 q=43.2 size=     768KiB time=00:00:03.50 bitrate=1797.7kbits/s speed=0.0114x elapsed=0:05:06.54    \nframe=  212 fps=0.7 q=43.2 size=     768KiB time=00:00:03.50 bitrate=1797.7kbits/s speed=0.0114x elapsed=0:05:07.07    \nframe=  214 fps=0.7 q=41.5 size=     768KiB time=00:00:03.53 bitrate=1780.7kbits/s speed=0.0115x elapsed=0:05:07.59    \nframe=  214 fps=0.7 q=41.5 size=     768KiB time=00:00:03.53 bitrate=1780.7kbits/s speed=0.0115x elapsed=0:05:08.11    \nframe=  214 fps=0.7 q=41.5 size=     768KiB time=00:00:03.53 bitrate=1780.7kbits/s speed=0.0114x elapsed=0:05:08.62    \nframe=  215 fps=0.7 q=43.2 size=     768KiB time=00:00:03.55 bitrate=1772.3kbits/s speed=0.0115x elapsed=0:05:09.17    \nframe=  215 fps=0.7 q=43.2 size=     768KiB time=00:00:03.55 bitrate=1772.3kbits/s speed=0.0115x elapsed=0:05:09.69    \nframe=  216 fps=0.7 q=43.5 size=     768KiB time=00:00:03.56 bitrate=1764.1kbits/s speed=0.0115x elapsed=0:05:10.19    \nframe=  216 fps=0.7 q=43.5 size=     768KiB time=00:00:03.56 bitrate=1764.1kbits/s speed=0.0115x elapsed=0:05:10.71    \nframe=  217 fps=0.7 q=39.0 size=     768KiB time=00:00:03.58 bitrate=1755.9kbits/s speed=0.0115x elapsed=0:05:11.23    \nframe=  218 fps=0.7 q=42.6 size=     768KiB time=00:00:03.60 bitrate=1747.7kbits/s speed=0.0115x elapsed=0:05:11.76    \nframe=  218 fps=0.7 q=42.6 size=     768KiB time=00:00:03.60 bitrate=1747.7kbits/s speed=0.0115x elapsed=0:05:12.27    \nframe=  218 fps=0.7 q=42.6 size=     768KiB time=00:00:03.60 bitrate=1747.7kbits/s speed=0.0115x elapsed=0:05:12.79    \nframe=  219 fps=0.7 q=44.1 size=     768KiB time=00:00:03.61 bitrate=1739.7kbits/s speed=0.0115x elapsed=0:05:13.31    \nframe=  220 fps=0.7 q=44.2 size=     768KiB time=00:00:03.63 bitrate=1731.7kbits/s speed=0.0116x elapsed=0:05:13.83    \nframe=  221 fps=0.7 q=39.6 size=     768KiB time=00:00:03.65 bitrate=1723.8kbits/s speed=0.0116x elapsed=0:05:14.37    \nframe=  221 fps=0.7 q=39.6 size=     768KiB time=00:00:03.65 bitrate=1723.8kbits/s speed=0.0116x elapsed=0:05:14.89    \nframe=  222 fps=0.7 q=43.1 size=     768KiB time=00:00:03.66 bitrate=1715.9kbits/s speed=0.0116x elapsed=0:05:15.41    \nframe=  222 fps=0.7 q=43.1 size=     768KiB time=00:00:03.66 bitrate=1715.9kbits/s speed=0.0116x elapsed=0:05:15.91    \nframe=  222 fps=0.7 q=43.1 size=     768KiB time=00:00:03.66 bitrate=1715.9kbits/s speed=0.0116x elapsed=0:05:16.43    \nframe=  223 fps=0.7 q=44.4 size=     768KiB time=00:00:03.68 bitrate=1708.2kbits/s speed=0.0116x elapsed=0:05:16.95    \nframe=  224 fps=0.7 q=44.9 size=     768KiB time=00:00:03.70 bitrate=1700.5kbits/s speed=0.0117x elapsed=0:05:17.46    \nframe=  225 fps=0.7 q=40.1 size=     768KiB time=00:00:03.71 bitrate=1692.9kbits/s speed=0.0117x elapsed=0:05:17.99    \nframe=  225 fps=0.7 q=40.1 size=     768KiB time=00:00:03.71 bitrate=1692.9kbits/s speed=0.0117x elapsed=0:05:18.51    \nframe=  225 fps=0.7 q=40.1 size=     768KiB time=00:00:03.71 bitrate=1692.9kbits/s speed=0.0117x elapsed=0:05:19.02    \nframe=  226 fps=0.7 q=43.3 size=     768KiB time=00:00:03.73 bitrate=1685.3kbits/s speed=0.0117x elapsed=0:05:19.54    \nframe=  226 fps=0.7 q=43.3 size=     768KiB time=00:00:03.73 bitrate=1685.3kbits/s speed=0.0117x elapsed=0:05:20.09    \nframe=  226 fps=0.7 q=43.3 size=     768KiB time=00:00:03.73 bitrate=1685.3kbits/s speed=0.0116x elapsed=0:05:20.60    \nframe=  227 fps=0.7 q=44.9 size=     768KiB time=00:00:03.75 bitrate=1677.8kbits/s speed=0.0117x elapsed=0:05:21.13    \nframe=  227 fps=0.7 q=44.9 size=     768KiB time=00:00:03.75 bitrate=1677.8kbits/s speed=0.0117x elapsed=0:05:21.65    \nframe=  228 fps=0.7 q=40.4 size=     768KiB time=00:00:03.76 bitrate=1670.4kbits/s speed=0.0117x elapsed=0:05:22.18    \nframe=  229 fps=0.7 q=44.4 size=     768KiB time=00:00:03.78 bitrate=1663.0kbits/s speed=0.0117x elapsed=0:05:22.70    \nframe=  229 fps=0.7 q=44.4 size=     768KiB time=00:00:03.78 bitrate=1663.0kbits/s speed=0.0117x elapsed=0:05:23.21    \nframe=  230 fps=0.7 q=45.1 size=     768KiB time=00:00:03.80 bitrate=1655.7kbits/s speed=0.0117x elapsed=0:05:23.73    \nframe=  231 fps=0.7 q=40.4 size=     768KiB time=00:00:03.81 bitrate=1648.5kbits/s speed=0.0118x elapsed=0:05:24.25    \nframe=  231 fps=0.7 q=40.4 size=     768KiB time=00:00:03.81 bitrate=1648.5kbits/s speed=0.0118x elapsed=0:05:24.78    \nframe=  232 fps=0.7 q=43.8 size=     768KiB time=00:00:03.83 bitrate=1641.3kbits/s speed=0.0118x elapsed=0:05:25.30    \nframe=  233 fps=0.7 q=45.2 size=     768KiB time=00:00:03.85 bitrate=1634.2kbits/s speed=0.0118x elapsed=0:05:25.81    \nframe=  233 fps=0.7 q=45.2 size=     768KiB time=00:00:03.85 bitrate=1634.2kbits/s speed=0.0118x elapsed=0:05:26.35    \nframe=  234 fps=0.7 q=39.8 size=     768KiB time=00:00:03.86 bitrate=1627.2kbits/s speed=0.0118x elapsed=0:05:26.87    \nframe=  234 fps=0.7 q=39.8 size=     768KiB time=00:00:03.86 bitrate=1627.2kbits/s speed=0.0118x elapsed=0:05:27.38    \nframe=  235 fps=0.7 q=43.7 size=     768KiB time=00:00:03.88 bitrate=1620.2kbits/s speed=0.0118x elapsed=0:05:27.90    \nframe=  235 fps=0.7 q=43.7 size=     768KiB time=00:00:03.88 bitrate=1620.2kbits/s speed=0.0118x elapsed=0:05:28.42    \nframe=  236 fps=0.7 q=45.0 size=     768KiB time=00:00:03.90 bitrate=1613.3kbits/s speed=0.0119x elapsed=0:05:28.93    \nframe=  236 fps=0.7 q=45.0 size=     768KiB time=00:00:03.90 bitrate=1613.3kbits/s speed=0.0118x elapsed=0:05:29.46    \nframe=  237 fps=0.7 q=39.8 size=     768KiB time=00:00:03.91 bitrate=1606.4kbits/s speed=0.0119x elapsed=0:05:29.97    \nframe=  237 fps=0.7 q=39.8 size=     768KiB time=00:00:03.91 bitrate=1606.4kbits/s speed=0.0119x elapsed=0:05:30.51    \nframe=  238 fps=0.7 q=43.8 size=     768KiB time=00:00:03.93 bitrate=1599.6kbits/s speed=0.0119x elapsed=0:05:31.04    \nframe=  238 fps=0.7 q=43.8 size=     768KiB time=00:00:03.93 bitrate=1599.6kbits/s speed=0.0119x elapsed=0:05:31.60    \nframe=  238 fps=0.7 q=43.8 size=     768KiB time=00:00:03.93 bitrate=1599.6kbits/s speed=0.0118x elapsed=0:05:32.18    \nframe=  238 fps=0.7 q=43.8 size=     768KiB time=00:00:03.93 bitrate=1599.6kbits/s speed=0.0118x elapsed=0:05:32.80    \nframe=  239 fps=0.7 q=44.9 size=     768KiB time=00:00:03.95 bitrate=1592.9kbits/s speed=0.0118x elapsed=0:05:33.35    \nframe=  239 fps=0.7 q=44.9 size=     768KiB time=00:00:03.95 bitrate=1592.9kbits/s speed=0.0118x elapsed=0:05:33.89    \nframe=  239 fps=0.7 q=44.9 size=     768KiB time=00:00:03.95 bitrate=1592.9kbits/s speed=0.0118x elapsed=0:05:34.43    \nframe=  239 fps=0.7 q=44.9 size=     768KiB time=00:00:03.95 bitrate=1592.9kbits/s speed=0.0118x elapsed=0:05:35.01    \nframe=  239 fps=0.7 q=44.9 size=     768KiB time=00:00:03.95 bitrate=1592.9kbits/s speed=0.0118x elapsed=0:05:35.64    \nframe=  240 fps=0.7 q=39.9 size=     768KiB time=00:00:03.96 bitrate=1586.2kbits/s speed=0.0118x elapsed=0:05:36.20    \nframe=  240 fps=0.7 q=39.9 size=     768KiB time=00:00:03.96 bitrate=1586.2kbits/s speed=0.0118x elapsed=0:05:36.76    \nframe=  240 fps=0.7 q=39.9 size=     768KiB time=00:00:03.96 bitrate=1586.2kbits/s speed=0.0118x elapsed=0:05:37.31    \nframe=  240 fps=0.7 q=39.9 size=     768KiB time=00:00:03.96 bitrate=1586.2kbits/s speed=0.0117x elapsed=0:05:37.86    \nframe=  241 fps=0.7 q=44.3 size=    1024KiB time=00:00:03.98 bitrate=2106.0kbits/s speed=0.0118x elapsed=0:05:38.38    \nframe=  241 fps=0.7 q=44.3 size=    1024KiB time=00:00:03.98 bitrate=2106.0kbits/s speed=0.0118x elapsed=0:05:38.90    \nframe=  241 fps=0.7 q=44.3 size=    1024KiB time=00:00:03.98 bitrate=2106.0kbits/s speed=0.0117x elapsed=0:05:39.43    \nframe=  242 fps=0.7 q=39.4 size=    1024KiB time=00:00:04.00 bitrate=2097.2kbits/s speed=0.0118x elapsed=0:05:39.95    \nframe=  242 fps=0.7 q=39.4 size=    1024KiB time=00:00:04.00 bitrate=2097.2kbits/s speed=0.0117x elapsed=0:05:40.47    \nframe=  243 fps=0.7 q=43.7 size=    1024KiB time=00:00:04.01 bitrate=2088.5kbits/s speed=0.0118x elapsed=0:05:40.99    \nframe=  243 fps=0.7 q=43.7 size=    1024KiB time=00:00:04.01 bitrate=2088.5kbits/s speed=0.0118x elapsed=0:05:41.50    \nframe=  244 fps=0.7 q=44.9 size=    1024KiB time=00:00:04.03 bitrate=2079.9kbits/s speed=0.0118x elapsed=0:05:42.04    \nframe=  245 fps=0.7 q=39.0 size=    1024KiB time=00:00:04.05 bitrate=2071.3kbits/s speed=0.0118x elapsed=0:05:42.57    \nframe=  246 fps=0.7 q=43.0 size=    1024KiB time=00:00:04.06 bitrate=2062.9kbits/s speed=0.0119x elapsed=0:05:43.08    \nframe=  246 fps=0.7 q=43.0 size=    1024KiB time=00:00:04.06 bitrate=2062.9kbits/s speed=0.0118x elapsed=0:05:43.59    \nframe=  247 fps=0.7 q=44.4 size=    1024KiB time=00:00:04.08 bitrate=2054.4kbits/s speed=0.0119x elapsed=0:05:44.10    \nframe=  247 fps=0.7 q=44.4 size=    1024KiB time=00:00:04.08 bitrate=2054.4kbits/s speed=0.0118x elapsed=0:05:44.63    \nframe=  248 fps=0.7 q=38.3 size=    1024KiB time=00:00:04.10 bitrate=2046.1kbits/s speed=0.0119x elapsed=0:05:45.17    \nframe=  249 fps=0.7 q=42.9 size=    1024KiB time=00:00:04.11 bitrate=2037.8kbits/s speed=0.0119x elapsed=0:05:45.68    \nframe=  250 fps=0.7 q=44.3 size=    1024KiB time=00:00:04.13 bitrate=2029.6kbits/s speed=0.0119x elapsed=0:05:46.20    \nframe=  251 fps=0.7 q=36.4 size=    1024KiB time=00:00:04.15 bitrate=2021.4kbits/s speed=0.012x elapsed=0:05:46.74    \nframe=  251 fps=0.7 q=36.4 size=    1024KiB time=00:00:04.15 bitrate=2021.4kbits/s speed=0.012x elapsed=0:05:47.27    \nframe=  252 fps=0.7 q=36.3 size=    1024KiB time=00:00:04.16 bitrate=2013.4kbits/s speed=0.012x elapsed=0:05:47.79    \nframe=  252 fps=0.7 q=36.3 size=    1024KiB time=00:00:04.16 bitrate=2013.4kbits/s speed=0.012x elapsed=0:05:48.31    \nframe=  253 fps=0.7 q=39.9 size=    1024KiB time=00:00:04.18 bitrate=2005.3kbits/s speed=0.012x elapsed=0:05:48.82    \nframe=  255 fps=0.7 q=43.4 size=    1024KiB time=00:00:04.21 bitrate=1989.5kbits/s speed=0.0121x elapsed=0:05:49.34    \nframe=  255 fps=0.7 q=43.4 size=    1024KiB time=00:00:04.21 bitrate=1989.5kbits/s speed=0.0121x elapsed=0:05:49.85    \nframe=  256 fps=0.7 q=42.9 size=    1024KiB time=00:00:04.23 bitrate=1981.6kbits/s speed=0.0121x elapsed=0:05:50.36    \nframe=  258 fps=0.7 q=40.7 size=    1024KiB time=00:00:04.26 bitrate=1966.2kbits/s speed=0.0122x elapsed=0:05:50.88    \nframe=  258 fps=0.7 q=40.7 size=    1024KiB time=00:00:04.26 bitrate=1966.2kbits/s speed=0.0121x elapsed=0:05:51.40    \nframe=  258 fps=0.7 q=40.7 size=    1024KiB time=00:00:04.26 bitrate=1966.2kbits/s speed=0.0121x elapsed=0:05:51.91    \nframe=  259 fps=0.7 q=42.8 size=    1024KiB time=00:00:04.28 bitrate=1958.5kbits/s speed=0.0122x elapsed=0:05:52.43    \nframe=  260 fps=0.7 q=42.3 size=    1024KiB time=00:00:04.30 bitrate=1950.9kbits/s speed=0.0122x elapsed=0:05:52.95    \nframe=  261 fps=0.7 q=36.5 size=    1024KiB time=00:00:04.31 bitrate=1943.4kbits/s speed=0.0122x elapsed=0:05:53.46    \nframe=  262 fps=0.7 q=39.7 size=    1024KiB time=00:00:04.33 bitrate=1935.9kbits/s speed=0.0122x elapsed=0:05:53.99    \nframe=  263 fps=0.7 q=41.9 size=    1024KiB time=00:00:04.35 bitrate=1928.5kbits/s speed=0.0123x elapsed=0:05:54.52    \nframe=  263 fps=0.7 q=41.9 size=    1024KiB time=00:00:04.35 bitrate=1928.5kbits/s speed=0.0123x elapsed=0:05:55.04    \nframe=  264 fps=0.7 q=42.1 size=    1024KiB time=00:00:04.36 bitrate=1921.1kbits/s speed=0.0123x elapsed=0:05:55.59    \nframe=  265 fps=0.7 q=36.3 size=    1024KiB time=00:00:04.38 bitrate=1913.8kbits/s speed=0.0123x elapsed=0:05:56.12    \nframe=  265 fps=0.7 q=36.3 size=    1024KiB time=00:00:04.38 bitrate=1913.8kbits/s speed=0.0123x elapsed=0:05:56.63    \nframe=  266 fps=0.7 q=39.6 size=    1024KiB time=00:00:04.40 bitrate=1906.6kbits/s speed=0.0123x elapsed=0:05:57.16    \nframe=  267 fps=0.7 q=41.8 size=    1024KiB time=00:00:04.41 bitrate=1899.4kbits/s speed=0.0123x elapsed=0:05:57.69    \nframe=  268 fps=0.7 q=41.9 size=    1024KiB time=00:00:04.43 bitrate=1892.2kbits/s speed=0.0124x elapsed=0:05:58.21    \nframe=  269 fps=0.7 q=36.0 size=    1024KiB time=00:00:04.45 bitrate=1885.2kbits/s speed=0.0124x elapsed=0:05:58.73    \nframe=  270 fps=0.8 q=39.2 size=    1024KiB time=00:00:04.46 bitrate=1878.1kbits/s speed=0.0124x elapsed=0:05:59.24    \nframe=  271 fps=0.8 q=41.7 size=    1024KiB time=00:00:04.48 bitrate=1871.1kbits/s speed=0.0125x elapsed=0:05:59.76    \nframe=  273 fps=0.8 q=35.9 size=    1024KiB time=00:00:04.51 bitrate=1857.3kbits/s speed=0.0125x elapsed=0:06:00.28    \nframe=  273 fps=0.8 q=35.9 size=    1024KiB time=00:00:04.51 bitrate=1857.3kbits/s speed=0.0125x elapsed=0:06:00.79    \nframe=  273 fps=0.8 q=35.9 size=    1024KiB time=00:00:04.51 bitrate=1857.3kbits/s speed=0.0125x elapsed=0:06:01.36    \nframe=  273 fps=0.8 q=35.9 size=    1024KiB time=00:00:04.51 bitrate=1857.3kbits/s speed=0.0125x elapsed=0:06:01.87    \nframe=  274 fps=0.8 q=39.4 size=    1024KiB time=00:00:04.53 bitrate=1850.5kbits/s speed=0.0125x elapsed=0:06:02.39    \nframe=  276 fps=0.8 q=41.9 size=    1024KiB time=00:00:04.56 bitrate=1837.0kbits/s speed=0.0126x elapsed=0:06:02.90    \nframe=  276 fps=0.8 q=41.9 size=    1024KiB time=00:00:04.56 bitrate=1837.0kbits/s speed=0.0126x elapsed=0:06:03.45    \nframe=  276 fps=0.8 q=41.9 size=    1024KiB time=00:00:04.56 bitrate=1837.0kbits/s speed=0.0125x elapsed=0:06:03.98    \nframe=  277 fps=0.8 q=36.5 size=    1024KiB time=00:00:04.58 bitrate=1830.3kbits/s speed=0.0126x elapsed=0:06:04.50    \nframe=  277 fps=0.8 q=36.5 size=    1024KiB time=00:00:04.58 bitrate=1830.3kbits/s speed=0.0126x elapsed=0:06:05.09    \nframe=  277 fps=0.8 q=36.5 size=    1024KiB time=00:00:04.58 bitrate=1830.3kbits/s speed=0.0125x elapsed=0:06:05.66    \nframe=  277 fps=0.8 q=36.5 size=    1024KiB time=00:00:04.58 bitrate=1830.3kbits/s speed=0.0125x elapsed=0:06:06.27    \nframe=  277 fps=0.8 q=36.5 size=    1024KiB time=00:00:04.58 bitrate=1830.3kbits/s speed=0.0125x elapsed=0:06:06.85    \nframe=  278 fps=0.8 q=38.9 size=    1024KiB time=00:00:04.60 bitrate=1823.7kbits/s speed=0.0125x elapsed=0:06:07.45    \nframe=  278 fps=0.8 q=38.9 size=    1024KiB time=00:00:04.60 bitrate=1823.7kbits/s speed=0.0125x elapsed=0:06:07.99    \nframe=  279 fps=0.8 q=41.8 size=    1024KiB time=00:00:04.61 bitrate=1817.1kbits/s speed=0.0125x elapsed=0:06:08.53    \nframe=  279 fps=0.8 q=41.8 size=    1024KiB time=00:00:04.61 bitrate=1817.1kbits/s speed=0.0125x elapsed=0:06:09.04    \nframe=  279 fps=0.8 q=41.8 size=    1024KiB time=00:00:04.61 bitrate=1817.1kbits/s speed=0.0125x elapsed=0:06:09.58    \nframe=  279 fps=0.8 q=41.8 size=    1024KiB time=00:00:04.61 bitrate=1817.1kbits/s speed=0.0125x elapsed=0:06:10.09    \nframe=  280 fps=0.8 q=41.3 size=    1024KiB time=00:00:04.63 bitrate=1810.6kbits/s speed=0.0125x elapsed=0:06:10.71    \nframe=  280 fps=0.8 q=41.3 size=    1024KiB time=00:00:04.63 bitrate=1810.6kbits/s speed=0.0125x elapsed=0:06:11.26    \nframe=  281 fps=0.8 q=36.8 size=    1024KiB time=00:00:04.65 bitrate=1804.1kbits/s speed=0.0125x elapsed=0:06:11.85    \nframe=  281 fps=0.8 q=36.8 size=    1024KiB time=00:00:04.65 bitrate=1804.1kbits/s speed=0.0125x elapsed=0:06:12.44    \nframe=  281 fps=0.8 q=36.8 size=    1024KiB time=00:00:04.65 bitrate=1804.1kbits/s speed=0.0125x elapsed=0:06:13.03    \nframe=  281 fps=0.8 q=36.8 size=    1024KiB time=00:00:04.65 bitrate=1804.1kbits/s speed=0.0124x elapsed=0:06:13.61    \nframe=  281 fps=0.8 q=36.8 size=    1024KiB time=00:00:04.65 bitrate=1804.1kbits/s speed=0.0124x elapsed=0:06:14.16    \nframe=  281 fps=0.7 q=36.8 size=    1024KiB time=00:00:04.65 bitrate=1804.1kbits/s speed=0.0124x elapsed=0:06:14.76    \nframe=  281 fps=0.7 q=36.8 size=    1024KiB time=00:00:04.65 bitrate=1804.1kbits/s speed=0.0124x elapsed=0:06:15.29    \nframe=  281 fps=0.7 q=36.8 size=    1024KiB time=00:00:04.65 bitrate=1804.1kbits/s speed=0.0124x elapsed=0:06:15.83    \nframe=  282 fps=0.7 q=39.0 size=    1024KiB time=00:00:04.66 bitrate=1797.6kbits/s speed=0.0124x elapsed=0:06:16.42    \nframe=  282 fps=0.7 q=39.0 size=    1024KiB time=00:00:04.66 bitrate=1797.6kbits/s speed=0.0124x elapsed=0:06:16.95    \nframe=  282 fps=0.7 q=39.0 size=    1024KiB time=00:00:04.66 bitrate=1797.6kbits/s speed=0.0124x elapsed=0:06:17.49    \nframe=  283 fps=0.7 q=41.7 size=    1024KiB time=00:00:04.68 bitrate=1791.2kbits/s speed=0.0124x elapsed=0:06:18.04    \nframe=  283 fps=0.7 q=41.7 size=    1024KiB time=00:00:04.68 bitrate=1791.2kbits/s speed=0.0124x elapsed=0:06:18.59    \nframe=  283 fps=0.7 q=41.7 size=    1024KiB time=00:00:04.68 bitrate=1791.2kbits/s speed=0.0124x elapsed=0:06:19.12    \nframe=  284 fps=0.7 q=41.7 size=    1024KiB time=00:00:04.70 bitrate=1784.9kbits/s speed=0.0124x elapsed=0:06:19.68    \nframe=  284 fps=0.7 q=41.7 size=    1024KiB time=00:00:04.70 bitrate=1784.9kbits/s speed=0.0124x elapsed=0:06:20.27    \nframe=  285 fps=0.7 q=36.4 size=    1024KiB time=00:00:04.71 bitrate=1778.6kbits/s speed=0.0124x elapsed=0:06:20.83    \nframe=  285 fps=0.7 q=36.4 size=    1024KiB time=00:00:04.71 bitrate=1778.6kbits/s speed=0.0124x elapsed=0:06:21.40    \nframe=  285 fps=0.7 q=36.4 size=    1024KiB time=00:00:04.71 bitrate=1778.6kbits/s speed=0.0123x elapsed=0:06:21.94    \nframe=  285 fps=0.7 q=36.4 size=    1024KiB time=00:00:04.71 bitrate=1778.6kbits/s speed=0.0123x elapsed=0:06:22.57    \nframe=  285 fps=0.7 q=36.4 size=    1024KiB time=00:00:04.71 bitrate=1778.6kbits/s speed=0.0123x elapsed=0:06:23.14    \nframe=  285 fps=0.7 q=36.4 size=    1024KiB time=00:00:04.71 bitrate=1778.6kbits/s speed=0.0123x elapsed=0:06:23.73    \nframe=  285 fps=0.7 q=36.4 size=    1024KiB time=00:00:04.71 bitrate=1778.6kbits/s speed=0.0123x elapsed=0:06:24.31    \nframe=  285 fps=0.7 q=36.4 size=    1024KiB time=00:00:04.71 bitrate=1778.6kbits/s speed=0.0123x elapsed=0:06:24.97    \nframe=  286 fps=0.7 q=39.6 size=    1024KiB time=00:00:04.73 bitrate=1772.3kbits/s speed=0.0123x elapsed=0:06:25.54    \nframe=  286 fps=0.7 q=39.6 size=    1024KiB time=00:00:04.73 bitrate=1772.3kbits/s speed=0.0123x elapsed=0:06:26.06    \nframe=  287 fps=0.7 q=42.2 size=    1024KiB time=00:00:04.75 bitrate=1766.1kbits/s speed=0.0123x elapsed=0:06:26.59    \nframe=  287 fps=0.7 q=42.2 size=    1024KiB time=00:00:04.75 bitrate=1766.1kbits/s speed=0.0123x elapsed=0:06:27.11    \nframe=  287 fps=0.7 q=42.2 size=    1024KiB time=00:00:04.75 bitrate=1766.1kbits/s speed=0.0123x elapsed=0:06:27.72    \nframe=  287 fps=0.7 q=42.2 size=    1024KiB time=00:00:04.75 bitrate=1766.1kbits/s speed=0.0122x elapsed=0:06:28.29    \nframe=  287 fps=0.7 q=42.2 size=    1024KiB time=00:00:04.75 bitrate=1766.1kbits/s speed=0.0122x elapsed=0:06:28.84    \nframe=  288 fps=0.7 q=42.0 size=    1024KiB time=00:00:04.76 bitrate=1759.9kbits/s speed=0.0122x elapsed=0:06:29.37    \nframe=  288 fps=0.7 q=42.0 size=    1024KiB time=00:00:04.76 bitrate=1759.9kbits/s speed=0.0122x elapsed=0:06:29.91    \nframe=  288 fps=0.7 q=42.0 size=    1024KiB time=00:00:04.76 bitrate=1759.9kbits/s speed=0.0122x elapsed=0:06:30.46    \nframe=  289 fps=0.7 q=36.8 size=    1024KiB time=00:00:04.78 bitrate=1753.8kbits/s speed=0.0122x elapsed=0:06:30.99    \nframe=  289 fps=0.7 q=36.8 size=    1024KiB time=00:00:04.78 bitrate=1753.8kbits/s speed=0.0122x elapsed=0:06:31.58    \nframe=  289 fps=0.7 q=36.8 size=    1024KiB time=00:00:04.78 bitrate=1753.8kbits/s speed=0.0122x elapsed=0:06:32.10    \nframe=  290 fps=0.7 q=39.1 size=    1024KiB time=00:00:04.80 bitrate=1747.7kbits/s speed=0.0122x elapsed=0:06:32.63    \nframe=  290 fps=0.7 q=39.1 size=    1024KiB time=00:00:04.80 bitrate=1747.7kbits/s speed=0.0122x elapsed=0:06:33.19    \nframe=  290 fps=0.7 q=39.1 size=    1024KiB time=00:00:04.80 bitrate=1747.7kbits/s speed=0.0122x elapsed=0:06:33.72    \nframe=  291 fps=0.7 q=41.9 size=    1024KiB time=00:00:04.81 bitrate=1741.7kbits/s speed=0.0122x elapsed=0:06:34.27    \nframe=  291 fps=0.7 q=41.9 size=    1024KiB time=00:00:04.81 bitrate=1741.7kbits/s speed=0.0122x elapsed=0:06:34.84    \nframe=  291 fps=0.7 q=41.9 size=    1024KiB time=00:00:04.81 bitrate=1741.7kbits/s speed=0.0122x elapsed=0:06:35.44    \nframe=  291 fps=0.7 q=41.9 size=    1024KiB time=00:00:04.81 bitrate=1741.7kbits/s speed=0.0122x elapsed=0:06:36.02    \nframe=  292 fps=0.7 q=42.1 size=    1024KiB time=00:00:04.83 bitrate=1735.6kbits/s speed=0.0122x elapsed=0:06:36.62    \nframe=  292 fps=0.7 q=42.1 size=    1024KiB time=00:00:04.83 bitrate=1735.6kbits/s speed=0.0122x elapsed=0:06:37.20    \nframe=  292 fps=0.7 q=42.1 size=    1024KiB time=00:00:04.83 bitrate=1735.6kbits/s speed=0.0122x elapsed=0:06:37.80    \nframe=  292 fps=0.7 q=42.1 size=    1024KiB time=00:00:04.83 bitrate=1735.6kbits/s speed=0.0121x elapsed=0:06:38.39    \nframe=  292 fps=0.7 q=42.1 size=    1024KiB time=00:00:04.83 bitrate=1735.6kbits/s speed=0.0121x elapsed=0:06:38.98    \nframe=  292 fps=0.7 q=42.1 size=    1024KiB time=00:00:04.83 bitrate=1735.6kbits/s speed=0.0121x elapsed=0:06:39.56    \nframe=  293 fps=0.7 q=36.7 size=    1024KiB time=00:00:04.83 bitrate=1735.6kbits/s speed=0.0121x elapsed=0:06:40.16    \nframe=  293 fps=0.7 q=36.7 size=    1024KiB time=00:00:04.85 bitrate=1729.7kbits/s speed=0.0121x elapsed=0:06:40.79    \nframe=  293 fps=0.7 q=36.7 size=    1024KiB time=00:00:04.85 bitrate=1729.7kbits/s speed=0.0121x elapsed=0:06:41.39    \nframe=  293 fps=0.7 q=36.7 size=    1024KiB time=00:00:04.85 bitrate=1729.7kbits/s speed=0.0121x elapsed=0:06:41.94    \nframe=  293 fps=0.7 q=36.7 size=    1024KiB time=00:00:04.85 bitrate=1729.7kbits/s speed=0.0121x elapsed=0:06:42.48    \nframe=  293 fps=0.7 q=36.7 size=    1024KiB time=00:00:04.85 bitrate=1729.7kbits/s speed=0.012x elapsed=0:06:43.01    \nframe=  293 fps=0.7 q=36.7 size=    1024KiB time=00:00:04.85 bitrate=1729.7kbits/s speed=0.012x elapsed=0:06:43.56    \nframe=  294 fps=0.7 q=39.2 size=    1024KiB time=00:00:04.86 bitrate=1723.8kbits/s speed=0.012x elapsed=0:06:44.12    \nframe=  294 fps=0.7 q=39.2 size=    1024KiB time=00:00:04.86 bitrate=1723.8kbits/s speed=0.012x elapsed=0:06:44.68    \nframe=  294 fps=0.7 q=39.2 size=    1024KiB time=00:00:04.86 bitrate=1723.8kbits/s speed=0.012x elapsed=0:06:45.23    \nframe=  295 fps=0.7 q=42.2 size=    1024KiB time=00:00:04.88 bitrate=1717.9kbits/s speed=0.012x elapsed=0:06:45.74    \nframe=  298 fps=0.7 q=38.6 size=    1024KiB time=00:00:04.93 bitrate=1700.5kbits/s speed=0.0121x elapsed=0:06:46.26    \nframe=  298 fps=0.7 q=38.6 size=    1024KiB time=00:00:04.93 bitrate=1700.5kbits/s speed=0.0121x elapsed=0:06:46.79    \n[mp4 @ 00000186936aaa40] Starting second pass: moving the moov atom to the beginning of the file\n[out#0/mp4 @ 0000018693f5e040] video:1243KiB audio:0KiB subtitle:0KiB other streams:0KiB global headers:2KiB muxing overhead: 0.564765%\nframe=  300 fps=0.7 q=42.1 Lsize=    1250KiB time=00:00:04.96 bitrate=2061.1kbits/s speed=0.0122x elapsed=0:06:47.29    \nx265 [info]: frame I:      2, Avg QP:37.72  kb/s: 5941.92 \nx265 [info]: frame P:     76, Avg QP:36.46  kb/s: 3949.61 \nx265 [info]: frame B:    222, Avg QP:40.84  kb/s: 1342.86 \nx265 [info]: Weighted P-Frames: Y:0.0% UV:0.0%\n\nencoded 300 frames in 405.58s (0.74 fps), 2033.90 kb/s, Avg QP:39.71\n",
  "seconds": 407.98448491096497,
  "probe_out": {}
}